<svg width="100%" height="100%" viewBox="0 0 1511 627" version="1.1" xmlns="http://www.w3.org/2000/svg" xmlns:xlink="http://www.w3.org/1999/xlink" xml:space="preserve" xmlns:serif="http://www.serif.com/" style="fill-rule:evenodd;clip-rule:evenodd;stroke-linecap:round;stroke-linejoin:round;stroke-miterlimit:1.5;">
    <rect id="involution" x="0" y="0" width="1510.26" height="626.589"/>
    <circle cx="190.358" cy="253.518" r="97.17" style="fill:#4c4c4c;"/>
    <circle cx="953.229" cy="253.518" r="97.17" style="fill:#4c4c4c;"/>
    <circle cx="552.074" cy="253.518" r="97.17" style="fill:#4c4c4c;"/>
    <circle cx="1314.95" cy="253.518" r="97.17" style="fill:#4c4c4c;"/>
    <path d="M1005.43,121.919c0,-1.264 0.388,-2.312 1.165,-3.143c0.777,-0.83 1.716,-1.246 2.817,-1.246c0.813,0 1.472,0.24 1.978,0.718c0.505,0.479 0.758,1.088 0.758,1.829c0,0.668 -0.221,1.372 -0.663,2.113c-0.443,0.74 -1.152,1.273 -2.127,1.598c1.264,1.138 2.989,1.716 5.174,1.734c2.817,-0 4.808,-0.61 5.973,-1.829c1.165,-1.219 1.747,-2.424 1.747,-3.616c0,-0.813 -0.316,-1.486 -0.948,-2.018c-0.632,-0.533 -1.318,-0.903 -2.058,-1.111c-0.741,-0.208 -1.657,-0.411 -2.75,-0.61c-1.093,-0.198 -1.856,-0.379 -2.289,-0.541c-1.065,-0.362 -2.036,-1.003 -2.912,-1.924c-0.876,-0.921 -1.314,-2.104 -1.314,-3.548c0,-0.669 0.14,-1.427 0.42,-2.276c0.28,-0.849 0.749,-1.792 1.409,-2.831c0.659,-1.038 1.72,-1.9 3.183,-2.587c1.462,-0.686 3.214,-1.029 5.255,-1.029c2.257,-0 4.059,0.465 5.404,1.395c1.346,0.93 2.018,2.145 2.018,3.643c0,1.229 -0.37,2.177 -1.11,2.845c-0.741,0.668 -1.517,1.002 -2.33,1.002c-0.704,0 -1.278,-0.221 -1.72,-0.664c-0.443,-0.442 -0.664,-0.979 -0.664,-1.611c0,-1.373 0.723,-2.411 2.167,-3.116c-1.065,-0.957 -2.375,-1.435 -3.928,-1.435c-2.149,-0 -3.657,0.496 -4.524,1.49c-0.866,0.993 -1.3,1.959 -1.3,2.898c0,0.632 0.181,1.147 0.542,1.544c0.415,0.452 0.953,0.777 1.612,0.975c0.659,0.199 1.499,0.384 2.519,0.556c1.02,0.171 1.883,0.365 2.587,0.582c1.228,0.416 2.357,1.129 3.386,2.14c1.03,1.012 1.544,2.33 1.544,3.955c0,0.849 -0.176,1.765 -0.528,2.75c-0.352,0.984 -0.935,2.031 -1.747,3.142c-0.813,1.111 -2.068,2.027 -3.766,2.75c-1.697,0.722 -3.711,1.083 -6.04,1.083c-2.745,0 -4.922,-0.51 -6.529,-1.53c-1.607,-1.021 -2.411,-2.38 -2.411,-4.077Z" style="fill:#fff;fill-rule:nonzero;"/>
    <path d="M1032.05,110.325c-0,-0.362 0.185,-0.98 0.555,-1.856c0.37,-0.876 0.867,-1.842 1.49,-2.899c0.623,-1.056 1.517,-1.982 2.682,-2.776c1.165,-0.795 2.415,-1.192 3.752,-1.192c1.48,-0 2.812,0.465 3.995,1.395c1.183,0.93 1.775,2.145 1.775,3.643c-0,0.705 -0.673,2.854 -2.019,6.448c-1.345,3.594 -2.018,6.483 -2.018,8.668c0,2.474 0.975,3.711 2.926,3.711c1.589,0 3.034,-0.722 4.334,-2.167c0.253,-0.289 0.465,-0.528 0.637,-0.718c0.171,-0.189 0.302,-0.397 0.393,-0.623c0.09,-0.225 0.144,-0.374 0.162,-0.447c0.018,-0.072 0.208,-1.002 0.244,-1.164l3.657,-14.791c0.596,-2.185 1.797,-3.278 3.603,-3.278c0.704,0 1.286,0.212 1.747,0.637c0.46,0.424 0.691,0.989 0.691,1.693c-0,0.487 -0.727,3.558 -2.181,9.21c-1.454,5.653 -2.181,8.958 -2.181,9.915c0,1.137 0.353,1.715 1.057,1.733c1.228,0 2.375,-2.095 3.44,-6.284c0.109,-0.416 0.244,-0.714 0.407,-0.894c0.162,-0.181 0.338,-0.289 0.528,-0.325c0.189,-0.036 0.483,-0.054 0.88,-0.054c0.885,-0 1.328,0.298 1.328,0.893c-0,0.145 -0.064,0.497 -0.19,1.057c-0.127,0.56 -0.366,1.282 -0.718,2.167c-0.352,0.885 -0.777,1.725 -1.273,2.519c-0.497,0.795 -1.16,1.49 -1.991,2.086c-0.831,0.596 -1.734,0.894 -2.709,0.894c-2.51,0 -4.398,-0.948 -5.662,-2.844c-2.077,1.878 -4.289,2.826 -6.637,2.844c-2.257,0 -4.171,-0.528 -5.742,-1.585c-1.572,-1.056 -2.357,-2.885 -2.357,-5.485c-0,-2.077 0.718,-5.034 2.153,-8.872c1.436,-3.837 2.154,-6.108 2.154,-6.813c0,-0.704 -0.289,-1.056 -0.867,-1.056c-0.921,-0 -1.815,0.533 -2.682,1.598c-0.74,0.957 -1.322,2.104 -1.747,3.44c-0.424,1.337 -0.727,2.077 -0.907,2.222c-0.289,0.18 -0.714,0.271 -1.274,0.271l-0.081,-0c-0.903,-0 -1.354,-0.307 -1.354,-0.921Z" style="fill:#fff;fill-rule:nonzero;"/>
    <path d="M1066.43,110.325c0.036,-0.217 0.099,-0.524 0.189,-0.921c0.091,-0.398 0.312,-1.093 0.664,-2.086c0.352,-0.994 0.768,-1.869 1.246,-2.628c0.479,-0.758 1.142,-1.454 1.991,-2.086c0.849,-0.632 1.797,-0.948 2.845,-0.948c2.582,0 4.505,1.02 5.769,3.061c2.186,-2.077 4.57,-3.115 7.152,-3.115c1.806,-0 3.413,0.433 4.822,1.3c1.408,0.867 2.113,2.113 2.113,3.738c-0,1.138 -0.398,2.127 -1.192,2.967c-0.795,0.84 -1.734,1.259 -2.817,1.259c-0.849,0 -1.513,-0.248 -1.991,-0.745c-0.479,-0.496 -0.718,-1.115 -0.718,-1.855c-0,-1.626 0.885,-2.826 2.654,-3.603c-0.993,-0.668 -1.986,-1.002 -2.979,-1.002c-0.921,-0 -1.802,0.212 -2.642,0.636c-0.839,0.425 -1.526,0.944 -2.058,1.558c-0.533,0.614 -0.957,1.151 -1.273,1.612c-0.317,0.46 -0.529,0.817 -0.637,1.07c-0.145,0.289 -0.289,0.849 -0.434,1.679l-3.494,13.87c-0.524,2.293 -1.725,3.44 -3.603,3.44c-0.704,0 -1.3,-0.217 -1.788,-0.65c-0.487,-0.433 -0.731,-0.993 -0.731,-1.68c-0,-0.325 0.081,-0.794 0.244,-1.408l3.711,-14.682c0.415,-1.806 0.614,-3.034 0.596,-3.685c-0,-1.137 -0.352,-1.706 -1.057,-1.706c-0.668,-0 -1.268,0.528 -1.801,1.585c-0.533,1.056 -0.957,2.212 -1.273,3.467c-0.316,1.255 -0.51,1.919 -0.583,1.991c-0.216,0.325 -0.605,0.488 -1.164,0.488l-0.461,-0c-0.867,-0 -1.3,-0.307 -1.3,-0.921Z" style="fill:#fff;fill-rule:nonzero;"/>
    <path d="M1088.35,134.217c-0,-1.101 0.388,-2.059 1.165,-2.871c0.776,-0.813 1.697,-1.219 2.763,-1.219c0.776,-0 1.431,0.23 1.964,0.69c0.532,0.461 0.799,1.08 0.799,1.856c-0,1.409 -0.741,2.574 -2.222,3.495c0.109,0.036 0.335,0.054 0.678,0.054c2.889,-0 4.993,-2.664 6.311,-7.992l4.795,-19.124c0.452,-1.77 0.668,-3.034 0.65,-3.793c0,-1.065 -0.406,-1.598 -1.219,-1.598c-0.885,-0 -1.909,0.469 -3.074,1.409c-1.165,0.939 -2.244,2.519 -3.237,4.74c-0.253,0.632 -0.484,1.02 -0.691,1.165c-0.208,0.144 -0.556,0.217 -1.043,0.217l-0.488,-0c-0.74,-0 -1.11,-0.271 -1.11,-0.813c-0,-0.361 0.239,-0.998 0.717,-1.91c0.479,-0.912 1.116,-1.887 1.91,-2.925c0.795,-1.039 1.86,-1.955 3.197,-2.75c1.336,-0.795 2.736,-1.192 4.199,-1.192c1.806,0 3.332,0.51 4.578,1.531c1.246,1.02 1.869,2.343 1.869,3.968c-0,0.361 -0.036,0.745 -0.109,1.151c-0.072,0.407 -0.171,0.827 -0.298,1.26c-0.126,0.434 -0.216,0.722 -0.27,0.867l-4.524,18.366c-0.452,1.662 -0.903,2.863 -1.355,3.603c-1.101,1.842 -2.668,3.291 -4.7,4.348c-2.031,1.056 -4.05,1.585 -6.054,1.585c-1.517,-0 -2.763,-0.38 -3.738,-1.138c-0.976,-0.759 -1.463,-1.752 -1.463,-2.98Zm17.906,-41.988c-0,-0.957 0.397,-1.824 1.192,-2.6c0.794,-0.777 1.688,-1.165 2.681,-1.165c0.777,-0 1.427,0.248 1.951,0.745c0.523,0.496 0.785,1.133 0.785,1.909c0,0.958 -0.397,1.824 -1.192,2.601c-0.794,0.777 -1.697,1.165 -2.708,1.165c-0.813,-0 -1.468,-0.248 -1.964,-0.745c-0.497,-0.497 -0.745,-1.133 -0.745,-1.91Z" style="fill:#fff;fill-rule:nonzero;"/>
    <path d="M1115.68,117.801c-0,-4.406 1.535,-8.208 4.605,-11.404c3.07,-3.197 6.971,-4.795 11.702,-4.795c2.149,-0 3.892,0.501 5.228,1.503c1.337,1.003 2.005,2.316 2.005,3.942c-0,2.113 -0.948,3.865 -2.844,5.255c-2.258,1.662 -6.439,2.501 -12.543,2.519l-1.219,0c-0.596,2.583 -0.894,4.443 -0.894,5.581c0,1.661 0.42,2.93 1.26,3.806c0.84,0.876 1.991,1.314 3.454,1.314c3.666,-0 6.853,-1.256 9.562,-3.766c0.145,-0.144 0.298,-0.302 0.461,-0.474c0.162,-0.171 0.293,-0.293 0.393,-0.366c0.099,-0.072 0.194,-0.158 0.284,-0.257c0.09,-0.099 0.172,-0.158 0.244,-0.176c0.072,-0.018 0.162,-0.027 0.271,-0.027c0.325,-0 0.686,0.203 1.083,0.609c0.398,0.407 0.596,0.763 0.596,1.07c0,0.217 -0.149,0.529 -0.447,0.935c-0.298,0.406 -0.799,0.871 -1.503,1.395c-0.704,0.524 -1.535,1.007 -2.492,1.449c-0.957,0.443 -2.194,0.822 -3.711,1.138c-1.517,0.316 -3.152,0.474 -4.904,0.474c-3.286,0 -5.873,-0.853 -7.761,-2.56c-1.887,-1.706 -2.83,-4.095 -2.83,-7.165Zm7.503,-4.984c8.235,-0 12.353,-1.933 12.353,-5.797c-0,-1.012 -0.33,-1.824 -0.989,-2.438c-0.659,-0.614 -1.512,-0.921 -2.56,-0.921c-0.451,-0 -0.925,0.045 -1.422,0.135c-0.497,0.09 -1.124,0.321 -1.883,0.691c-0.758,0.37 -1.458,0.862 -2.099,1.476c-0.641,0.614 -1.278,1.513 -1.91,2.696c-0.632,1.183 -1.129,2.569 -1.49,4.158Z" style="fill:#fff;fill-rule:nonzero;"/>
    <path d="M1141.79,118.072c0,-4.172 1.545,-7.96 4.633,-11.364c3.088,-3.404 7.034,-5.106 11.838,-5.106c2.076,-0 3.769,0.492 5.079,1.476c1.309,0.985 1.964,2.271 1.964,3.86c-0,1.229 -0.389,2.253 -1.165,3.075c-0.777,0.822 -1.716,1.233 -2.817,1.233c-0.777,-0 -1.423,-0.231 -1.937,-0.691c-0.515,-0.461 -0.772,-1.079 -0.772,-1.856c-0,-0.704 0.23,-1.435 0.691,-2.194c0.46,-0.758 1.187,-1.282 2.18,-1.571c-0.849,-0.849 -1.923,-1.273 -3.223,-1.273c-2.041,-0 -3.865,0.812 -5.472,2.438c-1.138,1.137 -2.118,2.912 -2.94,5.323c-0.821,2.411 -1.354,4.411 -1.598,6c-0.244,1.589 -0.366,2.664 -0.366,3.224c0,1.589 0.42,2.799 1.26,3.629c0.84,0.831 2.009,1.247 3.508,1.247c3.847,-0 7.107,-1.319 9.779,-3.955c0.741,-0.741 1.237,-1.111 1.49,-1.111c0.325,-0 0.677,0.203 1.057,0.609c0.379,0.407 0.569,0.763 0.569,1.07c-0,0.217 -0.158,0.529 -0.475,0.935c-0.316,0.406 -0.826,0.871 -1.53,1.395c-0.704,0.524 -1.54,1.007 -2.506,1.449c-0.966,0.443 -2.194,0.822 -3.684,1.138c-1.49,0.316 -3.111,0.474 -4.862,0.474c-3.323,0 -5.937,-0.826 -7.843,-2.478c-1.905,-1.653 -2.858,-3.978 -2.858,-6.976Z" style="fill:#fff;fill-rule:nonzero;"/>
    <path d="M1170.45,103.769c-0,-0.957 0.523,-1.454 1.571,-1.49l4.822,0c0.289,-1.3 0.921,-3.91 1.896,-7.829c0.596,-2.257 1.815,-3.386 3.657,-3.386c0.668,0 1.242,0.222 1.72,0.664c0.479,0.442 0.718,0.998 0.718,1.666c-0,0.289 -0.122,0.953 -0.366,1.991c-0.244,1.038 -0.551,2.289 -0.921,3.752c-0.37,1.463 -0.627,2.51 -0.772,3.142l4.172,0c0.993,0 1.49,0.352 1.49,1.057c-0,0.993 -0.515,1.508 -1.544,1.544l-4.849,-0l-3.711,15.034c-0.452,1.662 -0.669,2.971 -0.651,3.928c0,1.066 0.389,1.607 1.165,1.625c0.885,0 1.919,-0.474 3.102,-1.422c1.183,-0.948 2.271,-2.551 3.264,-4.808c0.181,-0.361 0.321,-0.628 0.42,-0.799c0.099,-0.172 0.239,-0.303 0.42,-0.393c0.181,-0.09 0.415,-0.135 0.704,-0.135l0.352,-0c0.958,-0 1.436,0.279 1.436,0.839c0,0.325 -0.239,0.944 -0.718,1.856c-0.478,0.912 -1.115,1.892 -1.909,2.939c-0.795,1.048 -1.87,1.973 -3.224,2.777c-1.355,0.803 -2.754,1.205 -4.199,1.205c-1.842,0 -3.372,-0.51 -4.591,-1.53c-1.219,-1.021 -1.829,-2.344 -1.829,-3.969c0,-0.451 0.217,-1.598 0.65,-3.44l3.386,-13.707l-4.199,-0c-0.975,-0 -1.462,-0.371 -1.462,-1.111Z" style="fill:#fff;fill-rule:nonzero;"/>
    <path d="M1191.04,110.325c0,-0.56 0.285,-1.486 0.854,-2.777c0.569,-1.291 1.557,-2.605 2.966,-3.941c1.409,-1.337 2.962,-2.005 4.659,-2.005c1.589,-0 2.948,0.474 4.077,1.422c1.129,0.948 1.693,2.154 1.693,3.616c0,0.885 -0.989,3.838 -2.966,8.859c-1.978,5.02 -2.966,7.991 -2.966,8.912c-0,0.704 0.298,1.056 0.894,1.056c0.74,0 1.449,-0.361 2.126,-1.083c0.677,-0.723 1.192,-1.499 1.544,-2.33c0.352,-0.831 0.677,-1.652 0.975,-2.465c0.298,-0.813 0.465,-1.237 0.502,-1.273c0.216,-0.253 0.605,-0.388 1.164,-0.406l0.325,-0c0.885,-0 1.346,0.298 1.382,0.893c-0,0.253 -0.108,0.696 -0.325,1.328c-0.217,0.632 -0.564,1.372 -1.043,2.221c-0.479,0.849 -1.034,1.653 -1.666,2.411c-0.632,0.759 -1.427,1.409 -2.384,1.95c-0.957,0.542 -1.977,0.813 -3.061,0.813c-1.517,0 -2.858,-0.447 -4.023,-1.341c-1.164,-0.894 -1.747,-2.117 -1.747,-3.67c0,-0.885 0.989,-3.833 2.966,-8.845c1.978,-5.011 2.967,-7.978 2.967,-8.899c-0,-0.704 -0.307,-1.056 -0.921,-1.056c-0.921,-0 -1.87,0.65 -2.845,1.95c-0.56,0.777 -0.993,1.553 -1.3,2.33c-0.307,0.776 -0.501,1.377 -0.582,1.801c-0.082,0.425 -0.231,0.772 -0.447,1.043c-0.217,0.271 -0.587,0.407 -1.111,0.407l-0.352,-0c-0.903,-0 -1.355,-0.307 -1.355,-0.921Zm9.644,-18.096c0,-0.993 0.397,-1.869 1.192,-2.628c0.795,-0.758 1.689,-1.137 2.682,-1.137c0.776,-0 1.426,0.257 1.95,0.772c0.524,0.514 0.786,1.142 0.786,1.882c-0,0.921 -0.388,1.779 -1.165,2.574c-0.777,0.795 -1.689,1.192 -2.736,1.192c-0.777,-0 -1.422,-0.248 -1.937,-0.745c-0.515,-0.497 -0.772,-1.133 -0.772,-1.91Z" style="fill:#fff;fill-rule:nonzero;"/>
    <path d="M1210.79,110.325c0,-0.362 0.176,-0.989 0.529,-1.883c0.352,-0.894 0.848,-1.86 1.489,-2.899c0.642,-1.038 1.535,-1.946 2.682,-2.722c1.147,-0.777 2.389,-1.165 3.725,-1.165c1.553,0 2.903,0.456 4.05,1.368c1.147,0.912 1.72,2.118 1.72,3.616c-0,0.669 -0.655,2.791 -1.964,6.366c-1.309,3.576 -1.964,6.375 -1.964,8.398c0,2.709 1.165,4.063 3.495,4.063c1.372,0 2.645,-0.677 3.819,-2.031c1.174,-1.355 2.077,-2.908 2.709,-4.66c0.632,-1.751 1.124,-3.295 1.476,-4.632c0.352,-1.336 0.529,-2.185 0.529,-2.546c-0,-1.138 -0.565,-2.226 -1.694,-3.264c-1.128,-1.039 -1.693,-1.946 -1.693,-2.723c0,-0.957 0.407,-1.865 1.219,-2.722c0.813,-0.858 1.743,-1.287 2.791,-1.287c0.885,-0 1.688,0.388 2.411,1.165c0.722,0.776 1.083,1.995 1.083,3.657c0,0.849 -0.14,2.05 -0.42,3.603c-0.28,1.553 -0.763,3.35 -1.449,5.39c-0.686,2.041 -1.499,3.946 -2.438,5.716c-0.939,1.77 -2.167,3.278 -3.684,4.524c-1.517,1.246 -3.17,1.869 -4.957,1.869c-1.138,0 -2.199,-0.113 -3.183,-0.338c-0.985,-0.226 -1.919,-0.587 -2.804,-1.084c-0.885,-0.497 -1.585,-1.237 -2.1,-2.221c-0.514,-0.985 -0.772,-2.181 -0.772,-3.59c0,-1.968 0.709,-4.871 2.127,-8.709c1.418,-3.837 2.126,-6.108 2.126,-6.813c0,-0.704 -0.289,-1.056 -0.866,-1.056c-0.741,-0 -1.558,0.469 -2.452,1.409c-0.894,0.939 -1.693,2.555 -2.397,4.848c-0.145,0.56 -0.316,0.912 -0.515,1.057c-0.199,0.144 -0.524,0.217 -0.975,0.217l-0.488,-0c-0.776,-0 -1.165,-0.307 -1.165,-0.921Z" style="fill:#fff;fill-rule:nonzero;"/>
    <path d="M1241.94,117.801c-0,-4.406 1.535,-8.208 4.605,-11.404c3.07,-3.197 6.971,-4.795 11.702,-4.795c2.149,-0 3.892,0.501 5.228,1.503c1.337,1.003 2.005,2.316 2.005,3.942c0,2.113 -0.948,3.865 -2.844,5.255c-2.258,1.662 -6.438,2.501 -12.543,2.519l-1.219,0c-0.595,2.583 -0.893,4.443 -0.893,5.581c-0,1.661 0.419,2.93 1.259,3.806c0.84,0.876 1.991,1.314 3.454,1.314c3.666,-0 6.854,-1.256 9.562,-3.766c0.145,-0.144 0.298,-0.302 0.461,-0.474c0.163,-0.171 0.293,-0.293 0.393,-0.366c0.099,-0.072 0.194,-0.158 0.284,-0.257c0.09,-0.099 0.172,-0.158 0.244,-0.176c0.072,-0.018 0.163,-0.027 0.271,-0.027c0.325,-0 0.686,0.203 1.083,0.609c0.398,0.407 0.596,0.763 0.596,1.07c0,0.217 -0.149,0.529 -0.447,0.935c-0.298,0.406 -0.799,0.871 -1.503,1.395c-0.704,0.524 -1.535,1.007 -2.492,1.449c-0.957,0.443 -2.194,0.822 -3.711,1.138c-1.517,0.316 -3.152,0.474 -4.904,0.474c-3.286,0 -5.873,-0.853 -7.761,-2.56c-1.887,-1.706 -2.83,-4.095 -2.83,-7.165Zm7.503,-4.984c8.235,-0 12.353,-1.933 12.353,-5.797c-0,-1.012 -0.33,-1.824 -0.989,-2.438c-0.659,-0.614 -1.512,-0.921 -2.56,-0.921c-0.451,-0 -0.925,0.045 -1.422,0.135c-0.497,0.09 -1.124,0.321 -1.883,0.691c-0.758,0.37 -1.458,0.862 -2.099,1.476c-0.641,0.614 -1.278,1.513 -1.91,2.696c-0.632,1.183 -1.128,2.569 -1.49,4.158Z" style="fill:#fff;fill-rule:nonzero;"/>
    <path d="M258.763,110.325c0,-0.56 0.285,-1.486 0.853,-2.777c0.569,-1.291 1.558,-2.605 2.967,-3.941c1.408,-1.337 2.961,-2.005 4.659,-2.005c1.589,-0 2.948,0.474 4.077,1.422c1.129,0.948 1.693,2.154 1.693,3.616c-0,0.885 -0.989,3.838 -2.966,8.859c-1.978,5.02 -2.967,7.991 -2.967,8.912c0,0.704 0.298,1.056 0.894,1.056c0.741,0 1.45,-0.361 2.127,-1.083c0.677,-0.723 1.192,-1.499 1.544,-2.33c0.352,-0.831 0.677,-1.652 0.975,-2.465c0.298,-0.813 0.465,-1.237 0.501,-1.273c0.217,-0.253 0.605,-0.388 1.165,-0.406l0.325,-0c0.885,-0 1.346,0.298 1.382,0.893c-0,0.253 -0.109,0.696 -0.325,1.328c-0.217,0.632 -0.565,1.372 -1.043,2.221c-0.479,0.849 -1.034,1.653 -1.666,2.411c-0.632,0.759 -1.427,1.409 -2.384,1.95c-0.957,0.542 -1.978,0.813 -3.061,0.813c-1.517,0 -2.858,-0.447 -4.023,-1.341c-1.165,-0.894 -1.747,-2.117 -1.747,-3.67c-0,-0.885 0.989,-3.833 2.966,-8.845c1.978,-5.011 2.966,-7.978 2.966,-8.899c0,-0.704 -0.307,-1.056 -0.921,-1.056c-0.921,-0 -1.869,0.65 -2.844,1.95c-0.56,0.777 -0.993,1.553 -1.3,2.33c-0.307,0.776 -0.501,1.377 -0.583,1.801c-0.081,0.425 -0.23,0.772 -0.447,1.043c-0.216,0.271 -0.587,0.407 -1.11,0.407l-0.352,-0c-0.903,-0 -1.355,-0.307 -1.355,-0.921Zm9.644,-18.096c-0,-0.993 0.397,-1.869 1.192,-2.628c0.794,-0.758 1.688,-1.137 2.682,-1.137c0.776,-0 1.426,0.257 1.95,0.772c0.524,0.514 0.786,1.142 0.786,1.882c-0,0.921 -0.389,1.779 -1.165,2.574c-0.777,0.795 -1.689,1.192 -2.736,1.192c-0.777,-0 -1.422,-0.248 -1.937,-0.745c-0.515,-0.497 -0.772,-1.133 -0.772,-1.91Z" style="fill:#fff;fill-rule:nonzero;"/>
    <path d="M278.457,110.325c-0,-0.109 0.063,-0.434 0.189,-0.976c0.127,-0.541 0.357,-1.255 0.691,-2.14c0.334,-0.885 0.75,-1.733 1.246,-2.546c0.497,-0.813 1.17,-1.517 2.018,-2.113c0.849,-0.596 1.779,-0.894 2.791,-0.894c1.137,0 2.316,0.298 3.535,0.894c1.219,0.596 2.072,1.598 2.56,3.007c2.546,-2.619 5.372,-3.937 8.479,-3.955c2.365,-0 4.244,0.51 5.634,1.53c1.391,1.021 2.086,2.624 2.086,4.809c-0,1.842 -0.768,4.88 -2.303,9.115c-1.535,4.235 -2.302,6.687 -2.302,7.355c-0,0.704 0.298,1.056 0.894,1.056c0.885,0 1.751,-0.523 2.6,-1.571c0.777,-0.957 1.386,-2.117 1.829,-3.481c0.442,-1.363 0.754,-2.126 0.934,-2.289c0.289,-0.18 0.723,-0.271 1.301,-0.271c0.921,0 1.39,0.316 1.408,0.948c0,0.56 -0.293,1.486 -0.88,2.777c-0.587,1.291 -1.58,2.605 -2.98,3.942c-1.4,1.336 -2.957,2.004 -4.673,2.004c-1.517,0 -2.858,-0.447 -4.023,-1.341c-1.164,-0.894 -1.747,-2.117 -1.747,-3.67c0,-0.669 0.714,-2.953 2.14,-6.854c1.427,-3.901 2.14,-6.862 2.14,-8.885c0,-2.077 -0.848,-3.115 -2.546,-3.115c-2.781,-0 -5.219,1.535 -7.314,4.605c-0.56,0.813 -0.993,1.833 -1.3,3.061c-1.842,7.278 -2.903,11.454 -3.183,12.529c-0.28,1.074 -0.547,1.792 -0.799,2.153c-0.705,0.993 -1.644,1.499 -2.818,1.517c-0.668,0 -1.255,-0.217 -1.761,-0.65c-0.505,-0.433 -0.758,-0.993 -0.758,-1.68c0,-0.252 0.099,-0.794 0.298,-1.625l3.494,-13.978c0.524,-2.149 0.777,-3.557 0.759,-4.226c-0,-1.101 -0.352,-1.652 -1.057,-1.652c-0.704,-0 -1.313,0.528 -1.828,1.585c-0.515,1.056 -0.939,2.212 -1.273,3.467c-0.334,1.255 -0.537,1.937 -0.61,2.045c-0.216,0.289 -0.713,0.434 -1.49,0.434l-0.081,-0c-0.867,-0 -1.3,-0.307 -1.3,-0.921Z" style="fill:#fff;fill-rule:nonzero;"/>
    <path d="M308.58,134.217c-0,-1.101 0.388,-2.059 1.165,-2.871c0.776,-0.813 1.697,-1.219 2.763,-1.219c0.776,-0 1.431,0.23 1.964,0.69c0.532,0.461 0.799,1.08 0.799,1.856c-0,1.409 -0.741,2.574 -2.221,3.495c0.108,0.036 0.334,0.054 0.677,0.054c2.889,-0 4.993,-2.664 6.312,-7.992l4.794,-19.124c0.452,-1.77 0.668,-3.034 0.65,-3.793c0,-1.065 -0.406,-1.598 -1.219,-1.598c-0.884,-0 -1.909,0.469 -3.074,1.409c-1.165,0.939 -2.244,2.519 -3.237,4.74c-0.253,0.632 -0.483,1.02 -0.691,1.165c-0.208,0.144 -0.555,0.217 -1.043,0.217l-0.488,-0c-0.74,-0 -1.11,-0.271 -1.11,-0.813c-0,-0.361 0.239,-0.998 0.718,-1.91c0.478,-0.912 1.115,-1.887 1.909,-2.925c0.795,-1.039 1.86,-1.955 3.197,-2.75c1.336,-0.795 2.736,-1.192 4.199,-1.192c1.806,0 3.332,0.51 4.578,1.531c1.246,1.02 1.869,2.343 1.869,3.968c-0,0.361 -0.036,0.745 -0.108,1.151c-0.073,0.407 -0.172,0.827 -0.298,1.26c-0.127,0.434 -0.217,0.722 -0.271,0.867l-4.524,18.366c-0.452,1.662 -0.903,2.863 -1.355,3.603c-1.101,1.842 -2.668,3.291 -4.7,4.348c-2.031,1.056 -4.049,1.585 -6.054,1.585c-1.517,-0 -2.763,-0.38 -3.738,-1.138c-0.976,-0.759 -1.463,-1.752 -1.463,-2.98Zm17.906,-41.988c-0,-0.957 0.397,-1.824 1.192,-2.6c0.794,-0.777 1.688,-1.165 2.681,-1.165c0.777,-0 1.427,0.248 1.951,0.745c0.524,0.496 0.785,1.133 0.785,1.909c0,0.958 -0.397,1.824 -1.191,2.601c-0.795,0.777 -1.698,1.165 -2.709,1.165c-0.813,-0 -1.468,-0.248 -1.964,-0.745c-0.497,-0.497 -0.745,-1.133 -0.745,-1.91Z" style="fill:#fff;fill-rule:nonzero;"/>
    <path d="M335.913,117.801c-0,-4.406 1.535,-8.208 4.605,-11.404c3.07,-3.197 6.971,-4.795 11.702,-4.795c2.149,-0 3.892,0.501 5.229,1.503c1.336,1.003 2.004,2.316 2.004,3.942c0,2.113 -0.948,3.865 -2.844,5.255c-2.258,1.662 -6.438,2.501 -12.542,2.519l-1.219,0c-0.596,2.583 -0.894,4.443 -0.894,5.581c-0,1.661 0.419,2.93 1.259,3.806c0.84,0.876 1.991,1.314 3.454,1.314c3.666,-0 6.854,-1.256 9.563,-3.766c0.144,-0.144 0.297,-0.302 0.46,-0.474c0.163,-0.171 0.293,-0.293 0.393,-0.366c0.099,-0.072 0.194,-0.158 0.284,-0.257c0.091,-0.099 0.172,-0.158 0.244,-0.176c0.072,-0.018 0.163,-0.027 0.271,-0.027c0.325,-0 0.686,0.203 1.084,0.609c0.397,0.407 0.595,0.763 0.595,1.07c0,0.217 -0.149,0.529 -0.447,0.935c-0.297,0.406 -0.799,0.871 -1.503,1.395c-0.704,0.524 -1.535,1.007 -2.492,1.449c-0.957,0.443 -2.194,0.822 -3.711,1.138c-1.517,0.316 -3.152,0.474 -4.903,0.474c-3.287,0 -5.874,-0.853 -7.761,-2.56c-1.888,-1.706 -2.831,-4.095 -2.831,-7.165Zm7.503,-4.984c8.235,-0 12.353,-1.933 12.353,-5.797c-0,-1.012 -0.33,-1.824 -0.989,-2.438c-0.659,-0.614 -1.512,-0.921 -2.56,-0.921c-0.451,-0 -0.925,0.045 -1.422,0.135c-0.496,0.09 -1.124,0.321 -1.883,0.691c-0.758,0.37 -1.458,0.862 -2.099,1.476c-0.641,0.614 -1.278,1.513 -1.91,2.696c-0.632,1.183 -1.128,2.569 -1.49,4.158Z" style="fill:#fff;fill-rule:nonzero;"/>
    <path d="M362.027,118.072c-0,-4.172 1.544,-7.96 4.632,-11.364c3.088,-3.404 7.034,-5.106 11.838,-5.106c2.077,-0 3.77,0.492 5.079,1.476c1.309,0.985 1.964,2.271 1.964,3.86c-0,1.229 -0.388,2.253 -1.165,3.075c-0.777,0.822 -1.716,1.233 -2.817,1.233c-0.777,-0 -1.422,-0.231 -1.937,-0.691c-0.515,-0.461 -0.772,-1.079 -0.772,-1.856c-0,-0.704 0.23,-1.435 0.691,-2.194c0.46,-0.758 1.187,-1.282 2.18,-1.571c-0.848,-0.849 -1.923,-1.273 -3.223,-1.273c-2.041,-0 -3.865,0.812 -5.472,2.438c-1.138,1.137 -2.118,2.912 -2.939,5.323c-0.822,2.411 -1.355,4.411 -1.599,6c-0.243,1.589 -0.365,2.664 -0.365,3.224c-0,1.589 0.419,2.799 1.259,3.629c0.84,0.831 2.009,1.247 3.508,1.247c3.847,-0 7.107,-1.319 9.779,-3.955c0.741,-0.741 1.237,-1.111 1.49,-1.111c0.325,-0 0.678,0.203 1.057,0.609c0.379,0.407 0.569,0.763 0.569,1.07c-0,0.217 -0.158,0.529 -0.474,0.935c-0.316,0.406 -0.827,0.871 -1.531,1.395c-0.704,0.524 -1.539,1.007 -2.506,1.449c-0.966,0.443 -2.194,0.822 -3.684,1.138c-1.49,0.316 -3.111,0.474 -4.862,0.474c-3.323,0 -5.937,-0.826 -7.843,-2.478c-1.905,-1.653 -2.857,-3.978 -2.857,-6.976Z" style="fill:#fff;fill-rule:nonzero;"/>
    <path d="M390.687,103.769c-0,-0.957 0.524,-1.454 1.571,-1.49l4.822,0c0.289,-1.3 0.921,-3.91 1.896,-7.829c0.596,-2.257 1.815,-3.386 3.657,-3.386c0.668,0 1.242,0.222 1.72,0.664c0.479,0.442 0.718,0.998 0.718,1.666c0,0.289 -0.122,0.953 -0.366,1.991c-0.243,1.038 -0.55,2.289 -0.921,3.752c-0.37,1.463 -0.627,2.51 -0.772,3.142l4.172,0c0.993,0 1.49,0.352 1.49,1.057c-0,0.993 -0.515,1.508 -1.544,1.544l-4.849,-0l-3.711,15.034c-0.452,1.662 -0.669,2.971 -0.65,3.928c-0,1.066 0.388,1.607 1.164,1.625c0.885,0 1.919,-0.474 3.102,-1.422c1.183,-0.948 2.271,-2.551 3.264,-4.808c0.181,-0.361 0.321,-0.628 0.42,-0.799c0.1,-0.172 0.239,-0.303 0.42,-0.393c0.181,-0.09 0.415,-0.135 0.704,-0.135l0.353,-0c0.957,-0 1.435,0.279 1.435,0.839c0,0.325 -0.239,0.944 -0.718,1.856c-0.478,0.912 -1.115,1.892 -1.909,2.939c-0.795,1.048 -1.87,1.973 -3.224,2.777c-1.354,0.803 -2.754,1.205 -4.199,1.205c-1.842,0 -3.372,-0.51 -4.591,-1.53c-1.219,-1.021 -1.829,-2.344 -1.829,-3.969c0,-0.451 0.217,-1.598 0.65,-3.44l3.386,-13.707l-4.198,-0c-0.976,-0 -1.463,-0.371 -1.463,-1.111Z" style="fill:#fff;fill-rule:nonzero;"/>
    <path d="M411.274,110.325c0,-0.56 0.285,-1.486 0.854,-2.777c0.569,-1.291 1.557,-2.605 2.966,-3.941c1.409,-1.337 2.962,-2.005 4.659,-2.005c1.59,-0 2.949,0.474 4.077,1.422c1.129,0.948 1.693,2.154 1.693,3.616c0,0.885 -0.988,3.838 -2.966,8.859c-1.977,5.02 -2.966,7.991 -2.966,8.912c-0,0.704 0.298,1.056 0.894,1.056c0.74,0 1.449,-0.361 2.126,-1.083c0.677,-0.723 1.192,-1.499 1.544,-2.33c0.352,-0.831 0.678,-1.652 0.976,-2.465c0.297,-0.813 0.465,-1.237 0.501,-1.273c0.216,-0.253 0.605,-0.388 1.164,-0.406l0.326,-0c0.884,-0 1.345,0.298 1.381,0.893c0,0.253 -0.108,0.696 -0.325,1.328c-0.217,0.632 -0.564,1.372 -1.043,2.221c-0.478,0.849 -1.034,1.653 -1.666,2.411c-0.632,0.759 -1.427,1.409 -2.384,1.95c-0.957,0.542 -1.977,0.813 -3.061,0.813c-1.517,0 -2.858,-0.447 -4.023,-1.341c-1.164,-0.894 -1.747,-2.117 -1.747,-3.67c0,-0.885 0.989,-3.833 2.967,-8.845c1.977,-5.011 2.966,-7.978 2.966,-8.899c-0,-0.704 -0.307,-1.056 -0.921,-1.056c-0.921,-0 -1.869,0.65 -2.845,1.95c-0.559,0.777 -0.993,1.553 -1.3,2.33c-0.307,0.776 -0.501,1.377 -0.582,1.801c-0.082,0.425 -0.231,0.772 -0.447,1.043c-0.217,0.271 -0.587,0.407 -1.111,0.407l-0.352,-0c-0.903,-0 -1.355,-0.307 -1.355,-0.921Zm9.644,-18.096c0,-0.993 0.397,-1.869 1.192,-2.628c0.795,-0.758 1.689,-1.137 2.682,-1.137c0.776,-0 1.427,0.257 1.95,0.772c0.524,0.514 0.786,1.142 0.786,1.882c-0,0.921 -0.388,1.779 -1.165,2.574c-0.776,0.795 -1.688,1.192 -2.736,1.192c-0.776,-0 -1.422,-0.248 -1.937,-0.745c-0.514,-0.497 -0.772,-1.133 -0.772,-1.91Z" style="fill:#fff;fill-rule:nonzero;"/>
    <path d="M431.022,110.325c0,-0.362 0.176,-0.989 0.529,-1.883c0.352,-0.894 0.848,-1.86 1.49,-2.899c0.641,-1.038 1.535,-1.946 2.681,-2.722c1.147,-0.777 2.389,-1.165 3.725,-1.165c1.553,0 2.903,0.456 4.05,1.368c1.147,0.912 1.72,2.118 1.72,3.616c0,0.669 -0.655,2.791 -1.964,6.366c-1.309,3.576 -1.964,6.375 -1.964,8.398c0,2.709 1.165,4.063 3.495,4.063c1.372,0 2.645,-0.677 3.819,-2.031c1.174,-1.355 2.077,-2.908 2.709,-4.66c0.632,-1.751 1.124,-3.295 1.476,-4.632c0.353,-1.336 0.529,-2.185 0.529,-2.546c-0,-1.138 -0.565,-2.226 -1.693,-3.264c-1.129,-1.039 -1.693,-1.946 -1.693,-2.723c-0,-0.957 0.406,-1.865 1.219,-2.722c0.812,-0.858 1.742,-1.287 2.79,-1.287c0.885,-0 1.688,0.388 2.411,1.165c0.722,0.776 1.083,1.995 1.083,3.657c0,0.849 -0.14,2.05 -0.42,3.603c-0.28,1.553 -0.763,3.35 -1.449,5.39c-0.686,2.041 -1.499,3.946 -2.438,5.716c-0.939,1.77 -2.167,3.278 -3.684,4.524c-1.517,1.246 -3.169,1.869 -4.957,1.869c-1.138,0 -2.199,-0.113 -3.183,-0.338c-0.985,-0.226 -1.919,-0.587 -2.804,-1.084c-0.885,-0.497 -1.585,-1.237 -2.099,-2.221c-0.515,-0.985 -0.772,-2.181 -0.772,-3.59c-0,-1.968 0.708,-4.871 2.126,-8.709c1.418,-3.837 2.126,-6.108 2.126,-6.813c0,-0.704 -0.288,-1.056 -0.866,-1.056c-0.741,-0 -1.558,0.469 -2.452,1.409c-0.894,0.939 -1.693,2.555 -2.397,4.848c-0.145,0.56 -0.316,0.912 -0.515,1.057c-0.199,0.144 -0.524,0.217 -0.975,0.217l-0.488,-0c-0.776,-0 -1.165,-0.307 -1.165,-0.921Z" style="fill:#fff;fill-rule:nonzero;"/>
    <path d="M462.175,117.801c-0,-4.406 1.535,-8.208 4.605,-11.404c3.07,-3.197 6.971,-4.795 11.702,-4.795c2.149,-0 3.892,0.501 5.229,1.503c1.336,1.003 2.004,2.316 2.004,3.942c0,2.113 -0.948,3.865 -2.844,5.255c-2.258,1.662 -6.438,2.501 -12.542,2.519l-1.219,0c-0.596,2.583 -0.894,4.443 -0.894,5.581c-0,1.661 0.42,2.93 1.259,3.806c0.84,0.876 1.991,1.314 3.454,1.314c3.666,-0 6.854,-1.256 9.563,-3.766c0.144,-0.144 0.298,-0.302 0.46,-0.474c0.163,-0.171 0.294,-0.293 0.393,-0.366c0.099,-0.072 0.194,-0.158 0.284,-0.257c0.091,-0.099 0.172,-0.158 0.244,-0.176c0.072,-0.018 0.163,-0.027 0.271,-0.027c0.325,-0 0.686,0.203 1.084,0.609c0.397,0.407 0.596,0.763 0.596,1.07c-0,0.217 -0.149,0.529 -0.447,0.935c-0.298,0.406 -0.8,0.871 -1.504,1.395c-0.704,0.524 -1.535,1.007 -2.492,1.449c-0.957,0.443 -2.194,0.822 -3.711,1.138c-1.517,0.316 -3.152,0.474 -4.903,0.474c-3.287,0 -5.874,-0.853 -7.761,-2.56c-1.888,-1.706 -2.831,-4.095 -2.831,-7.165Zm7.503,-4.984c8.236,-0 12.353,-1.933 12.353,-5.797c0,-1.012 -0.33,-1.824 -0.989,-2.438c-0.659,-0.614 -1.512,-0.921 -2.56,-0.921c-0.451,-0 -0.925,0.045 -1.422,0.135c-0.496,0.09 -1.124,0.321 -1.882,0.691c-0.759,0.37 -1.459,0.862 -2.1,1.476c-0.641,0.614 -1.278,1.513 -1.91,2.696c-0.632,1.183 -1.128,2.569 -1.49,4.158Z" style="fill:#fff;fill-rule:nonzero;"/>
    <path d="M645.814,557.996c-0,-1.625 0.28,-3.476 0.839,-5.553l3.82,-15.143c0.813,-3.214 1.354,-5.363 1.625,-6.447c-0.325,-0.036 -0.722,-0.054 -1.192,-0.054c-0.469,-0 -0.835,-0.009 -1.097,-0.027c-0.262,-0.018 -0.528,-0.063 -0.799,-0.136c-0.271,-0.072 -0.465,-0.189 -0.582,-0.352c-0.118,-0.162 -0.176,-0.397 -0.176,-0.704c-0,-0.741 0.307,-1.192 0.921,-1.355c0.614,-0.162 2.086,-0.298 4.415,-0.406c1.301,-0.072 2.357,-0.126 3.17,-0.163l0.433,0c0.849,0 1.273,0.353 1.273,1.057c0,0.361 -0.054,0.713 -0.162,1.056l-3.17,12.705c1.915,-1.065 3.748,-1.607 5.499,-1.625c0.777,-0 1.535,0.072 2.276,0.217c0.74,0.144 1.517,0.433 2.33,0.866c0.812,0.434 1.535,0.971 2.167,1.612c0.632,0.641 1.142,1.499 1.53,2.574c0.388,1.074 0.583,2.298 0.583,3.67c-0,2.583 -0.574,5.143 -1.721,7.68c-1.146,2.537 -2.912,4.723 -5.295,6.556c-2.384,1.833 -5.075,2.749 -8.073,2.749c-2.582,0 -4.664,-0.758 -6.244,-2.275c-1.58,-1.517 -2.37,-3.685 -2.37,-6.502Zm5.336,2.438c0,1.553 0.343,2.655 1.03,3.305c0.686,0.65 1.471,0.975 2.356,0.975c0.994,0 1.955,-0.343 2.885,-1.029c0.93,-0.686 1.648,-1.454 2.154,-2.303c0.921,-1.481 1.81,-3.914 2.668,-7.3c0.858,-3.386 1.287,-5.802 1.287,-7.246c-0,-1.409 -0.325,-2.416 -0.975,-3.021c-0.65,-0.605 -1.382,-0.907 -2.195,-0.907c-1.372,-0 -2.668,0.469 -3.887,1.408c-1.219,0.939 -2.018,1.779 -2.397,2.52c-0.109,0.288 -0.375,1.241 -0.799,2.857c-0.425,1.617 -0.885,3.572 -1.382,5.865c-0.496,2.294 -0.745,3.919 -0.745,4.876Z" style="fill:#b3b3b3;fill-rule:nonzero;"/>
    <path d="M673.445,549.572c-0,-0.56 0.284,-1.486 0.853,-2.777c0.569,-1.291 1.557,-2.605 2.966,-3.942c1.409,-1.336 2.962,-2.004 4.659,-2.004c1.59,-0 2.949,0.474 4.077,1.422c1.129,0.948 1.693,2.154 1.693,3.616c0,0.885 -0.988,3.838 -2.966,8.859c-1.977,5.02 -2.966,7.991 -2.966,8.912c-0,0.704 0.298,1.056 0.894,1.056c0.74,0 1.449,-0.361 2.126,-1.083c0.677,-0.723 1.192,-1.499 1.544,-2.33c0.353,-0.831 0.678,-1.652 0.976,-2.465c0.298,-0.813 0.465,-1.237 0.501,-1.273c0.216,-0.253 0.605,-0.388 1.165,-0.407l0.325,0c0.885,0 1.345,0.298 1.381,0.894c0,0.253 -0.108,0.696 -0.325,1.328c-0.217,0.632 -0.564,1.372 -1.043,2.221c-0.478,0.849 -1.034,1.653 -1.666,2.411c-0.632,0.758 -1.427,1.409 -2.384,1.95c-0.957,0.542 -1.977,0.813 -3.061,0.813c-1.517,0 -2.858,-0.447 -4.022,-1.341c-1.165,-0.894 -1.748,-2.117 -1.748,-3.67c0,-0.885 0.989,-3.833 2.967,-8.845c1.977,-5.011 2.966,-7.978 2.966,-8.899c-0,-0.704 -0.307,-1.056 -0.921,-1.056c-0.921,-0 -1.869,0.65 -2.845,1.95c-0.559,0.777 -0.993,1.553 -1.3,2.33c-0.307,0.776 -0.501,1.377 -0.582,1.801c-0.082,0.425 -0.231,0.772 -0.447,1.043c-0.217,0.271 -0.587,0.407 -1.111,0.407l-0.352,-0c-0.903,-0 -1.354,-0.307 -1.354,-0.921Zm9.643,-18.096c0,-0.993 0.398,-1.869 1.192,-2.628c0.795,-0.758 1.689,-1.137 2.682,-1.137c0.776,-0 1.427,0.257 1.95,0.772c0.524,0.514 0.786,1.142 0.786,1.882c-0,0.921 -0.388,1.779 -1.165,2.574c-0.776,0.794 -1.688,1.192 -2.736,1.192c-0.776,-0 -1.422,-0.249 -1.937,-0.745c-0.514,-0.497 -0.772,-1.133 -0.772,-1.91Z" style="fill:#b3b3b3;fill-rule:nonzero;"/>
    <path d="M687.206,573.464c-0,-1.102 0.388,-2.059 1.165,-2.871c0.776,-0.813 1.697,-1.219 2.763,-1.219c0.776,-0 1.431,0.23 1.964,0.69c0.532,0.461 0.799,1.079 0.799,1.856c-0,1.409 -0.741,2.573 -2.222,3.494c0.109,0.037 0.335,0.055 0.678,0.055c2.889,-0 4.993,-2.664 6.311,-7.992l4.795,-19.124c0.452,-1.77 0.668,-3.034 0.65,-3.793c0,-1.065 -0.406,-1.598 -1.219,-1.598c-0.885,-0 -1.909,0.469 -3.074,1.408c-1.165,0.94 -2.244,2.52 -3.237,4.741c-0.253,0.632 -0.484,1.02 -0.691,1.165c-0.208,0.144 -0.556,0.217 -1.043,0.217l-0.488,-0c-0.74,-0 -1.11,-0.271 -1.11,-0.813c-0,-0.361 0.239,-0.998 0.717,-1.91c0.479,-0.912 1.116,-1.887 1.91,-2.925c0.795,-1.039 1.86,-1.955 3.197,-2.75c1.336,-0.795 2.736,-1.192 4.199,-1.192c1.805,0 3.331,0.51 4.578,1.531c1.246,1.02 1.869,2.343 1.869,3.968c-0,0.361 -0.036,0.745 -0.109,1.151c-0.072,0.407 -0.171,0.827 -0.298,1.26c-0.126,0.433 -0.216,0.722 -0.27,0.867l-4.524,18.366c-0.452,1.662 -0.903,2.863 -1.355,3.603c-1.101,1.842 -2.668,3.291 -4.7,4.348c-2.031,1.056 -4.05,1.585 -6.054,1.585c-1.517,-0 -2.763,-0.38 -3.738,-1.138c-0.976,-0.759 -1.463,-1.752 -1.463,-2.98Zm17.906,-41.988c-0,-0.957 0.397,-1.824 1.192,-2.6c0.794,-0.777 1.688,-1.165 2.681,-1.165c0.777,-0 1.427,0.248 1.951,0.745c0.523,0.496 0.785,1.133 0.785,1.909c0,0.958 -0.397,1.824 -1.192,2.601c-0.794,0.777 -1.697,1.165 -2.708,1.165c-0.813,-0 -1.468,-0.249 -1.964,-0.745c-0.497,-0.497 -0.745,-1.133 -0.745,-1.91Z" style="fill:#b3b3b3;fill-rule:nonzero;"/>
    <path d="M714.539,557.048c-0,-4.406 1.535,-8.208 4.605,-11.404c3.07,-3.197 6.971,-4.795 11.702,-4.795c2.149,-0 3.892,0.501 5.228,1.503c1.337,1.003 2.005,2.316 2.005,3.942c-0,2.113 -0.948,3.864 -2.844,5.255c-2.258,1.662 -6.439,2.501 -12.543,2.519l-1.219,0c-0.596,2.583 -0.894,4.443 -0.894,5.581c0,1.661 0.42,2.93 1.26,3.806c0.84,0.876 1.991,1.313 3.454,1.313c3.666,0 6.853,-1.255 9.562,-3.765c0.145,-0.144 0.298,-0.302 0.461,-0.474c0.162,-0.172 0.293,-0.293 0.393,-0.366c0.099,-0.072 0.194,-0.158 0.284,-0.257c0.09,-0.099 0.172,-0.158 0.244,-0.176c0.072,-0.018 0.162,-0.027 0.271,-0.027c0.325,-0 0.686,0.203 1.083,0.609c0.398,0.407 0.596,0.763 0.596,1.07c0,0.217 -0.149,0.529 -0.447,0.935c-0.298,0.406 -0.799,0.871 -1.503,1.395c-0.704,0.524 -1.535,1.007 -2.492,1.449c-0.957,0.443 -2.194,0.822 -3.711,1.138c-1.517,0.316 -3.152,0.474 -4.904,0.474c-3.286,0 -5.873,-0.853 -7.761,-2.56c-1.887,-1.706 -2.83,-4.095 -2.83,-7.165Zm7.503,-4.984c8.235,-0 12.353,-1.933 12.353,-5.797c-0,-1.012 -0.33,-1.824 -0.989,-2.438c-0.659,-0.614 -1.512,-0.921 -2.56,-0.921c-0.451,-0 -0.925,0.045 -1.422,0.135c-0.497,0.09 -1.124,0.321 -1.883,0.691c-0.758,0.37 -1.458,0.862 -2.099,1.476c-0.641,0.614 -1.278,1.513 -1.91,2.696c-0.632,1.182 -1.129,2.569 -1.49,4.158Z" style="fill:#b3b3b3;fill-rule:nonzero;"/>
    <path d="M740.652,557.319c0,-4.172 1.545,-7.96 4.633,-11.364c3.088,-3.404 7.034,-5.106 11.838,-5.106c2.076,-0 3.769,0.492 5.079,1.476c1.309,0.984 1.964,2.271 1.964,3.86c-0,1.228 -0.389,2.253 -1.165,3.075c-0.777,0.822 -1.716,1.233 -2.817,1.233c-0.777,-0 -1.423,-0.231 -1.937,-0.691c-0.515,-0.461 -0.772,-1.079 -0.772,-1.856c-0,-0.704 0.23,-1.436 0.691,-2.194c0.46,-0.759 1.187,-1.282 2.18,-1.571c-0.849,-0.849 -1.923,-1.273 -3.223,-1.273c-2.041,-0 -3.865,0.812 -5.472,2.438c-1.138,1.137 -2.118,2.912 -2.94,5.323c-0.821,2.411 -1.354,4.411 -1.598,6c-0.244,1.589 -0.366,2.664 -0.366,3.223c0,1.59 0.42,2.8 1.26,3.63c0.84,0.831 2.009,1.246 3.508,1.246c3.847,0 7.107,-1.318 9.779,-3.955c0.741,-0.74 1.237,-1.11 1.49,-1.11c0.325,-0 0.677,0.203 1.057,0.609c0.379,0.407 0.569,0.763 0.569,1.07c-0,0.217 -0.158,0.529 -0.475,0.935c-0.316,0.406 -0.826,0.871 -1.53,1.395c-0.704,0.524 -1.54,1.007 -2.506,1.449c-0.966,0.443 -2.194,0.822 -3.684,1.138c-1.49,0.316 -3.111,0.474 -4.862,0.474c-3.323,0 -5.937,-0.826 -7.843,-2.479c-1.905,-1.652 -2.858,-3.977 -2.858,-6.975Z" style="fill:#b3b3b3;fill-rule:nonzero;"/>
    <path d="M769.313,543.016c-0,-0.957 0.523,-1.454 1.571,-1.49l4.822,0c0.289,-1.3 0.921,-3.91 1.896,-7.829c0.596,-2.257 1.815,-3.386 3.657,-3.386c0.668,0 1.241,0.221 1.72,0.664c0.479,0.442 0.718,0.998 0.718,1.666c-0,0.289 -0.122,0.953 -0.366,1.991c-0.244,1.038 -0.551,2.289 -0.921,3.752c-0.37,1.463 -0.627,2.51 -0.772,3.142l4.172,0c0.993,0 1.49,0.352 1.49,1.057c-0,0.993 -0.515,1.508 -1.544,1.544l-4.849,-0l-3.711,15.034c-0.452,1.662 -0.669,2.971 -0.651,3.928c0,1.065 0.389,1.607 1.165,1.625c0.885,0 1.919,-0.474 3.102,-1.422c1.183,-0.948 2.271,-2.551 3.264,-4.808c0.181,-0.361 0.321,-0.628 0.42,-0.799c0.099,-0.172 0.239,-0.303 0.42,-0.393c0.181,-0.09 0.415,-0.136 0.704,-0.136l0.352,0c0.958,0 1.436,0.28 1.436,0.84c0,0.325 -0.239,0.944 -0.718,1.856c-0.478,0.912 -1.115,1.892 -1.91,2.939c-0.794,1.047 -1.869,1.973 -3.223,2.777c-1.355,0.803 -2.754,1.205 -4.199,1.205c-1.842,0 -3.372,-0.51 -4.591,-1.53c-1.22,-1.021 -1.829,-2.344 -1.829,-3.969c-0,-0.451 0.217,-1.598 0.65,-3.44l3.386,-13.707l-4.199,-0c-0.975,-0 -1.462,-0.371 -1.462,-1.111Z" style="fill:#b3b3b3;fill-rule:nonzero;"/>
    <path d="M789.9,549.572c0,-0.56 0.285,-1.486 0.854,-2.777c0.568,-1.291 1.557,-2.605 2.966,-3.942c1.409,-1.336 2.962,-2.004 4.659,-2.004c1.589,-0 2.948,0.474 4.077,1.422c1.129,0.948 1.693,2.154 1.693,3.616c0,0.885 -0.989,3.838 -2.966,8.859c-1.978,5.02 -2.966,7.991 -2.966,8.912c-0,0.704 0.298,1.056 0.894,1.056c0.74,0 1.449,-0.361 2.126,-1.083c0.677,-0.723 1.192,-1.499 1.544,-2.33c0.352,-0.831 0.677,-1.652 0.975,-2.465c0.298,-0.813 0.465,-1.237 0.502,-1.273c0.216,-0.253 0.605,-0.388 1.164,-0.407l0.325,0c0.885,0 1.346,0.298 1.382,0.894c-0,0.253 -0.108,0.696 -0.325,1.328c-0.217,0.632 -0.564,1.372 -1.043,2.221c-0.479,0.849 -1.034,1.653 -1.666,2.411c-0.632,0.758 -1.427,1.409 -2.384,1.95c-0.957,0.542 -1.977,0.813 -3.061,0.813c-1.517,0 -2.858,-0.447 -4.023,-1.341c-1.164,-0.894 -1.747,-2.117 -1.747,-3.67c0,-0.885 0.989,-3.833 2.966,-8.845c1.978,-5.011 2.967,-7.978 2.967,-8.899c-0,-0.704 -0.307,-1.056 -0.921,-1.056c-0.921,-0 -1.87,0.65 -2.845,1.95c-0.56,0.777 -0.993,1.553 -1.3,2.33c-0.307,0.776 -0.501,1.377 -0.582,1.801c-0.082,0.425 -0.231,0.772 -0.447,1.043c-0.217,0.271 -0.587,0.407 -1.111,0.407l-0.352,-0c-0.903,-0 -1.355,-0.307 -1.355,-0.921Zm9.644,-18.096c0,-0.993 0.397,-1.869 1.192,-2.628c0.795,-0.758 1.688,-1.137 2.682,-1.137c0.776,-0 1.426,0.257 1.95,0.772c0.524,0.514 0.786,1.142 0.786,1.882c-0,0.921 -0.389,1.779 -1.165,2.574c-0.777,0.794 -1.689,1.192 -2.736,1.192c-0.777,-0 -1.422,-0.249 -1.937,-0.745c-0.515,-0.497 -0.772,-1.133 -0.772,-1.91Z" style="fill:#b3b3b3;fill-rule:nonzero;"/>
    <path d="M809.648,549.572c0,-0.362 0.176,-0.989 0.528,-1.883c0.353,-0.894 0.849,-1.86 1.49,-2.899c0.641,-1.038 1.535,-1.946 2.682,-2.722c1.147,-0.777 2.389,-1.165 3.725,-1.165c1.553,0 2.903,0.456 4.05,1.368c1.147,0.912 1.72,2.118 1.72,3.616c-0,0.669 -0.655,2.791 -1.964,6.366c-1.309,3.576 -1.964,6.375 -1.964,8.398c-0,2.709 1.165,4.063 3.494,4.063c1.373,0 2.646,-0.677 3.82,-2.031c1.174,-1.355 2.077,-2.908 2.709,-4.66c0.632,-1.751 1.124,-3.296 1.476,-4.632c0.352,-1.336 0.529,-2.185 0.529,-2.546c-0,-1.138 -0.565,-2.226 -1.694,-3.265c-1.128,-1.038 -1.693,-1.945 -1.693,-2.722c0,-0.957 0.407,-1.865 1.219,-2.722c0.813,-0.858 1.743,-1.287 2.791,-1.287c0.884,-0 1.688,0.388 2.411,1.165c0.722,0.776 1.083,1.995 1.083,3.657c0,0.849 -0.14,2.049 -0.42,3.603c-0.28,1.553 -0.763,3.35 -1.449,5.39c-0.686,2.041 -1.499,3.946 -2.438,5.716c-0.939,1.77 -2.167,3.278 -3.684,4.524c-1.517,1.246 -3.17,1.869 -4.958,1.869c-1.137,0 -2.198,-0.113 -3.182,-0.339c-0.985,-0.225 -1.919,-0.586 -2.804,-1.083c-0.885,-0.497 -1.585,-1.237 -2.1,-2.221c-0.514,-0.985 -0.772,-2.181 -0.772,-3.59c0,-1.968 0.709,-4.871 2.127,-8.709c1.418,-3.837 2.126,-6.108 2.126,-6.813c0,-0.704 -0.289,-1.056 -0.866,-1.056c-0.741,-0 -1.558,0.469 -2.452,1.408c-0.894,0.94 -1.693,2.556 -2.397,4.849c-0.145,0.56 -0.316,0.912 -0.515,1.057c-0.199,0.144 -0.524,0.217 -0.975,0.217l-0.488,-0c-0.776,-0 -1.165,-0.307 -1.165,-0.921Z" style="fill:#b3b3b3;fill-rule:nonzero;"/>
    <path d="M840.801,557.048c-0,-4.406 1.535,-8.208 4.605,-11.404c3.07,-3.197 6.971,-4.795 11.702,-4.795c2.149,-0 3.892,0.501 5.228,1.503c1.337,1.003 2.005,2.316 2.005,3.942c0,2.113 -0.948,3.864 -2.844,5.255c-2.258,1.662 -6.438,2.501 -12.543,2.519l-1.219,0c-0.596,2.583 -0.893,4.443 -0.893,5.581c-0,1.661 0.419,2.93 1.259,3.806c0.84,0.876 1.991,1.313 3.454,1.313c3.666,0 6.854,-1.255 9.562,-3.765c0.145,-0.144 0.298,-0.302 0.461,-0.474c0.162,-0.172 0.293,-0.293 0.393,-0.366c0.099,-0.072 0.194,-0.158 0.284,-0.257c0.09,-0.099 0.172,-0.158 0.244,-0.176c0.072,-0.018 0.163,-0.027 0.271,-0.027c0.325,-0 0.686,0.203 1.083,0.609c0.398,0.407 0.596,0.763 0.596,1.07c0,0.217 -0.149,0.529 -0.447,0.935c-0.298,0.406 -0.799,0.871 -1.503,1.395c-0.704,0.524 -1.535,1.007 -2.492,1.449c-0.957,0.443 -2.194,0.822 -3.711,1.138c-1.517,0.316 -3.152,0.474 -4.904,0.474c-3.286,0 -5.873,-0.853 -7.761,-2.56c-1.887,-1.706 -2.83,-4.095 -2.83,-7.165Zm7.503,-4.984c8.235,-0 12.353,-1.933 12.353,-5.797c-0,-1.012 -0.33,-1.824 -0.989,-2.438c-0.659,-0.614 -1.512,-0.921 -2.56,-0.921c-0.451,-0 -0.925,0.045 -1.422,0.135c-0.497,0.09 -1.124,0.321 -1.883,0.691c-0.758,0.37 -1.458,0.862 -2.099,1.476c-0.641,0.614 -1.278,1.513 -1.91,2.696c-0.632,1.182 -1.128,2.569 -1.49,4.158Z" style="fill:#b3b3b3;fill-rule:nonzero;"/>
    <circle cx="190.358" cy="299.376" r="7.286" style="fill:#fff;"/>
    <circle cx="1314.95" cy="299.376" r="7.286" style="fill:#fff;"/>
    <circle cx="522.213" cy="299.376" r="7.286" style="fill:#fff;"/>
    <circle cx="915.511" cy="299.376" r="7.286" style="fill:#fff;"/>
    <circle cx="190.358" cy="207.661" r="7.286" style="fill:#fff;"/>
    <circle cx="1314.95" cy="207.661" r="7.286" style="fill:#fff;"/>
    <circle cx="522.213" cy="207.661" r="7.286" style="fill:#fff;"/>
    <circle cx="915.511" cy="207.661" r="7.286" style="fill:#fff;"/>
    <circle cx="597.648" cy="253.518" r="7.286" style="fill:#fff;"/>
    <circle cx="990.947" cy="253.518" r="7.286" style="fill:#fff;"/>
    <path d="M475.021,197.161l21,10.5l-21,10.5c5.25,-5.25 5.25,-15.75 -0,-21Z" style="fill:#fff;"/>
    <path d="M218.172,207.661l261.049,0" style="fill:none;stroke:#fff;stroke-width:3.5px;"/>
    <path d="M1265.42,196.161l21,10.5l-21,10.5c5.25,-5.25 5.25,-15.75 0,-21Z" style="fill:#fff;"/>
    <path d="M941.069,206.661l328.548,0" style="fill:none;stroke:#fff;stroke-width:3.5px;"/>
    <path d="M1262.95,223.615l23.463,0.855l-14.761,18.258c2.602,-6.954 -1.748,-16.51 -8.702,-19.113Z" style="fill:#fff;"/>
    <path d="M1015.93,256.16c0,-0 79.763,5.22 152.904,-2.642c52.542,-5.647 85.112,-15.448 102.289,-22.087" style="fill:none;stroke:#fff;stroke-width:3.5px;"/>
    <path d="M475.021,288.876l21,10.5l-21,10.5c5.25,-5.25 5.25,-15.75 -0,-21Z" style="fill:#fff;"/>
    <path d="M218.172,299.376l261.049,-0" style="fill:none;stroke:#fff;stroke-width:3.5px;"/>
    <path d="M94.398,462.256c0,-0 6.775,26.099 31.206,26.604c214.419,4.434 1040.89,4.434 1255.31,-0c24.432,-0.505 31.206,-26.604 31.206,-26.604" style="fill:none;stroke:#858585;stroke-width:3.5px;"/>
    <path d="M1265.42,289.876l21,10.5l-21,10.5c5.25,-5.25 5.25,-15.75 0,-21Z" style="fill:#fff;"/>
    <path d="M941.069,300.376l328.548,-0" style="fill:none;stroke:#fff;stroke-width:3.5px;"/>
    <path d="M166.779,414.891c0,-2.998 0.592,-6.009 1.775,-9.034c1.183,-3.025 2.835,-5.797 4.957,-8.316c2.122,-2.519 4.876,-4.574 8.262,-6.163c3.386,-1.589 7.075,-2.384 11.066,-2.384c3.738,0 6.754,1.255 9.048,3.766c0.74,-0.56 1.463,-1.125 2.167,-1.693c0.704,-0.569 1.196,-0.976 1.476,-1.219c0.28,-0.244 0.565,-0.447 0.854,-0.61c0.288,-0.163 0.568,-0.244 0.839,-0.244c0.668,0 1.003,0.298 1.003,0.894c-0,0.181 -1.093,4.65 -3.278,13.409c-0.145,0.56 -0.312,0.926 -0.501,1.097c-0.19,0.172 -0.565,0.258 -1.125,0.258l-0.596,-0c-0.884,-0 -1.327,-0.334 -1.327,-1.003c0,-0.108 0.027,-0.424 0.081,-0.948c0.055,-0.523 0.082,-1.02 0.082,-1.49c-0,-1.065 -0.122,-2.108 -0.366,-3.128c-0.244,-1.021 -0.65,-2.041 -1.219,-3.061c-0.569,-1.021 -1.4,-1.838 -2.492,-2.452c-1.093,-0.614 -2.398,-0.921 -3.915,-0.921c-2.293,-0 -4.56,0.492 -6.799,1.476c-2.239,0.985 -4.172,2.416 -5.797,4.294c-2.185,2.51 -3.842,5.865 -4.971,10.063c-1.129,4.199 -1.693,7.427 -1.693,9.685c0,1.914 0.343,3.548 1.029,4.903c0.687,1.354 1.594,2.357 2.723,3.007c1.129,0.65 2.23,1.106 3.305,1.368c1.074,0.262 2.198,0.393 3.372,0.393c2.077,-0 3.761,-0.493 5.052,-1.477c1.292,-0.984 2.181,-1.991 2.669,-3.02c0.108,-0.217 0.677,-2.402 1.706,-6.556c-0.885,-0.072 -2.338,-0.108 -4.361,-0.108l-1.056,-0c-1.03,-0 -1.554,-0.388 -1.572,-1.165c0,-0.993 0.542,-1.49 1.626,-1.49c0.144,0 0.492,0.009 1.043,0.027c0.55,0.018 1.557,0.036 3.02,0.054c1.463,0.019 3.323,0.028 5.58,0.028l1.544,-0c1.102,-0 2.475,-0.019 4.118,-0.055c0.108,0 0.822,-0.054 0.894,-0.054c0.813,0 1.219,0.37 1.219,1.111c-0,1.029 -0.56,1.544 -1.68,1.544l-0.704,-0c-0.849,-0 -1.535,0.054 -2.059,0.162c-1.481,6.285 -2.42,10.078 -2.817,11.378c-0.18,0.632 -0.478,0.948 -0.894,0.948c-0.325,-0 -0.952,-0.289 -1.883,-0.867c-0.93,-0.578 -1.675,-1.12 -2.234,-1.625l-0.055,-0c-2.654,2.546 -6.257,3.819 -10.808,3.819c-1.445,0 -2.872,-0.131 -4.28,-0.392c-1.409,-0.262 -2.863,-0.732 -4.361,-1.409c-1.499,-0.677 -2.8,-1.535 -3.901,-2.574c-1.102,-1.038 -2.005,-2.438 -2.709,-4.198c-0.705,-1.761 -1.057,-3.77 -1.057,-6.028Z" style="fill:#fff;fill-rule:nonzero;"/>
    <path d="M933.984,414.891c0,-2.998 0.592,-6.009 1.775,-9.034c1.183,-3.025 2.835,-5.797 4.957,-8.316c2.122,-2.519 4.876,-4.574 8.262,-6.163c3.386,-1.589 7.075,-2.384 11.066,-2.384c3.738,0 6.754,1.255 9.048,3.766c0.74,-0.56 1.463,-1.125 2.167,-1.693c0.704,-0.569 1.196,-0.976 1.476,-1.219c0.28,-0.244 0.565,-0.447 0.854,-0.61c0.289,-0.163 0.568,-0.244 0.839,-0.244c0.669,0 1.003,0.298 1.003,0.894c-0,0.181 -1.093,4.65 -3.278,13.409c-0.145,0.56 -0.312,0.926 -0.501,1.097c-0.19,0.172 -0.565,0.258 -1.124,0.258l-0.596,-0c-0.885,-0 -1.328,-0.334 -1.328,-1.003c0,-0.108 0.027,-0.424 0.081,-0.948c0.055,-0.523 0.082,-1.02 0.082,-1.49c-0,-1.065 -0.122,-2.108 -0.366,-3.128c-0.244,-1.021 -0.65,-2.041 -1.219,-3.061c-0.569,-1.021 -1.4,-1.838 -2.492,-2.452c-1.093,-0.614 -2.398,-0.921 -3.915,-0.921c-2.293,-0 -4.56,0.492 -6.799,1.476c-2.239,0.985 -4.172,2.416 -5.797,4.294c-2.185,2.51 -3.842,5.865 -4.971,10.063c-1.128,4.199 -1.693,7.427 -1.693,9.685c0,1.914 0.343,3.548 1.03,4.903c0.686,1.354 1.593,2.357 2.722,3.007c1.129,0.65 2.23,1.106 3.305,1.368c1.074,0.262 2.199,0.393 3.372,0.393c2.077,-0 3.761,-0.493 5.053,-1.477c1.291,-0.984 2.18,-1.991 2.668,-3.02c0.108,-0.217 0.677,-2.402 1.706,-6.556c-0.884,-0.072 -2.338,-0.108 -4.361,-0.108l-1.056,-0c-1.03,-0 -1.553,-0.388 -1.572,-1.165c0,-0.993 0.542,-1.49 1.626,-1.49c0.144,0 0.492,0.009 1.043,0.027c0.551,0.018 1.557,0.036 3.02,0.054c1.463,0.019 3.323,0.028 5.581,0.028l1.544,-0c1.101,-0 2.474,-0.019 4.117,-0.055c0.108,0 0.822,-0.054 0.894,-0.054c0.813,0 1.219,0.37 1.219,1.111c0,1.029 -0.56,1.544 -1.679,1.544l-0.705,-0c-0.849,-0 -1.535,0.054 -2.059,0.162c-1.48,6.285 -2.419,10.078 -2.817,11.378c-0.18,0.632 -0.478,0.948 -0.894,0.948c-0.325,-0 -0.952,-0.289 -1.882,-0.867c-0.93,-0.578 -1.675,-1.12 -2.235,-1.625l-0.054,-0c-2.655,2.546 -6.258,3.819 -10.809,3.819c-1.445,0 -2.871,-0.131 -4.28,-0.392c-1.409,-0.262 -2.862,-0.732 -4.361,-1.409c-1.499,-0.677 -2.8,-1.535 -3.901,-2.574c-1.102,-1.038 -2.005,-2.438 -2.709,-4.198c-0.704,-1.761 -1.057,-3.77 -1.057,-6.028Z" style="fill:#fff;fill-rule:nonzero;"/>
    <path d="M524.385,427.163c-0,-1.03 0.533,-1.544 1.598,-1.544l0.948,-0c1.969,-0 3.269,-0.073 3.901,-0.217l8.045,-32.426c-0.668,-0.072 -1.688,-0.108 -3.061,-0.108l-1.056,-0c-0.993,-0 -1.49,-0.388 -1.49,-1.165c0,-0.993 0.515,-1.49 1.544,-1.49c0.145,0 0.569,0.018 1.273,0.054c0.705,0.037 1.657,0.064 2.858,0.082c1.201,0.018 2.524,0.027 3.969,0.027c1.733,-0 3.241,-0.009 4.524,-0.027c1.282,-0.018 2.216,-0.045 2.803,-0.082c0.587,-0.036 0.953,-0.054 1.097,-0.054c0.994,0 1.499,0.388 1.517,1.165c0,0.957 -0.523,1.454 -1.571,1.49l-1.002,-0c-1.77,-0 -2.84,0.05 -3.21,0.149c-0.37,0.099 -0.628,0.402 -0.772,0.907l-3.332,13.22l15.874,-0l3.495,-14.168c-0.669,-0.072 -1.689,-0.108 -3.061,-0.108l-1.111,-0c-0.957,-0 -1.436,-0.388 -1.436,-1.165c0,-0.993 0.533,-1.49 1.598,-1.49c0.145,0 0.569,0.018 1.274,0.054c0.704,0.037 1.679,0.064 2.925,0.082c1.246,0.018 2.61,0.027 4.091,0.027c1.77,-0 3.282,-0.009 4.537,-0.027c1.255,-0.018 2.163,-0.045 2.723,-0.082c0.559,-0.036 0.893,-0.054 1.002,-0.054c0.993,0 1.49,0.37 1.49,1.111c-0,0.993 -0.515,1.508 -1.544,1.544l-1.382,-0c-1.697,-0 -2.718,0.077 -3.061,0.23c-0.343,0.154 -0.605,0.619 -0.786,1.395c-0.036,0.181 -0.072,0.325 -0.108,0.434l-7.585,30.583c0.705,0.072 1.77,0.109 3.197,0.109l1.056,-0c0.885,-0 1.328,0.388 1.328,1.164c-0,0.994 -0.533,1.49 -1.599,1.49l-0.054,0c-3.594,-0.108 -6.366,-0.162 -8.316,-0.162c-1.066,-0 -2.416,0.027 -4.05,0.081c-1.634,0.054 -2.984,0.081 -4.05,0.081c-1.029,0 -1.553,-0.37 -1.571,-1.11c-0,-0.994 0.542,-1.508 1.625,-1.544l0.948,-0c1.969,-0 3.26,-0.073 3.874,-0.217l3.874,-15.603l-15.847,-0l-3.955,15.711c0.704,0.072 1.797,0.109 3.278,0.109l1.056,-0c0.885,-0 1.327,0.388 1.327,1.164c0,0.994 -0.532,1.49 -1.598,1.49l-0.054,0c-3.63,-0.108 -6.411,-0.162 -8.343,-0.162c-2.186,-0 -4.885,0.054 -8.1,0.162c-1.029,0 -1.544,-0.37 -1.544,-1.11Z" style="fill:#fff;fill-rule:nonzero;"/>
    <path d="M351.791,273.019c0,-1.137 0.397,-2.108 1.192,-2.912c0.795,-0.803 1.734,-1.205 2.817,-1.205c0.777,-0 1.423,0.235 1.937,0.704c0.515,0.47 0.772,1.093 0.772,1.869c0,1.662 -0.812,2.863 -2.438,3.603c0.813,0.325 1.382,0.488 1.707,0.488c1.138,-0 2.004,-0.989 2.6,-2.966c0.596,-1.978 1.563,-6.633 2.899,-13.965l2.655,-14.465l-4.714,-0l-0.054,0.054l-0.163,-0c-1.029,-0 -1.544,-0.388 -1.544,-1.165c0,-0.993 0.551,-1.49 1.653,-1.49l5.282,0l0.054,-0.054c0.849,-5.653 1.897,-9.355 3.143,-11.107c0.776,-1.065 1.788,-1.896 3.034,-2.492c1.246,-0.596 2.51,-0.894 3.792,-0.894c1.77,0 3.251,0.434 4.443,1.301c1.192,0.866 1.788,1.968 1.788,3.304c-0,1.265 -0.407,2.267 -1.219,3.007c-0.813,0.741 -1.725,1.111 -2.736,1.111c-0.777,-0 -1.423,-0.235 -1.937,-0.704c-0.515,-0.47 -0.772,-1.093 -0.772,-1.87c-0,-1.589 0.794,-2.772 2.384,-3.548c-0.669,-0.325 -1.238,-0.488 -1.707,-0.488c-0.921,0 -1.625,0.479 -2.113,1.436c-0.145,0.289 -0.402,1.341 -0.772,3.156c-0.37,1.815 -0.704,3.557 -1.002,5.228c-0.298,1.67 -0.447,2.542 -0.447,2.614l5.986,0c1.03,0 1.544,0.37 1.544,1.111c0,1.029 -0.55,1.544 -1.652,1.544c-0.036,-0 -0.054,-0.009 -0.054,-0.027c-0,-0.018 -0.018,-0.027 -0.054,-0.027l-6.285,-0c-2.005,11.576 -3.422,18.971 -4.253,22.186c-0.596,2.185 -1.264,4.027 -2.005,5.526c-0.74,1.499 -1.815,2.817 -3.223,3.955c-1.481,1.192 -2.998,1.788 -4.551,1.788c-1.517,-0 -2.894,-0.398 -4.131,-1.192c-1.237,-0.795 -1.856,-1.933 -1.856,-3.414Z" style="fill:#fff;fill-rule:nonzero;"/>
    <path d="M1296.17,425.944c-0,-1.03 0.533,-1.544 1.598,-1.544l0.948,-0c1.969,-0 3.269,-0.073 3.901,-0.217l8.046,-32.426c-0.669,-0.072 -1.689,-0.108 -3.062,-0.108l-1.056,-0c-0.993,-0 -1.49,-0.388 -1.49,-1.165c0,-0.993 0.515,-1.49 1.544,-1.49c0.145,0 0.569,0.018 1.273,0.054c0.705,0.036 1.657,0.064 2.858,0.082c1.201,0.018 2.524,0.027 3.969,0.027c1.733,-0 3.241,-0.009 4.524,-0.027c1.282,-0.018 2.216,-0.046 2.803,-0.082c0.587,-0.036 0.953,-0.054 1.097,-0.054c0.994,0 1.499,0.388 1.517,1.165c0,0.957 -0.523,1.454 -1.571,1.49l-1.002,-0c-1.77,-0 -2.84,0.05 -3.21,0.149c-0.37,0.099 -0.628,0.402 -0.772,0.907l-3.332,13.22l15.874,-0l3.495,-14.168c-0.669,-0.072 -1.689,-0.108 -3.061,-0.108l-1.111,-0c-0.957,-0 -1.436,-0.388 -1.436,-1.165c0,-0.993 0.533,-1.49 1.598,-1.49c0.145,0 0.569,0.018 1.274,0.054c0.704,0.036 1.679,0.064 2.925,0.082c1.246,0.018 2.61,0.027 4.091,0.027c1.77,-0 3.282,-0.009 4.537,-0.027c1.255,-0.018 2.163,-0.046 2.723,-0.082c0.559,-0.036 0.893,-0.054 1.002,-0.054c0.993,0 1.49,0.37 1.49,1.111c-0,0.993 -0.515,1.508 -1.544,1.544l-1.382,-0c-1.697,-0 -2.718,0.077 -3.061,0.23c-0.343,0.154 -0.605,0.619 -0.786,1.395c-0.036,0.181 -0.072,0.325 -0.108,0.434l-7.585,30.583c0.705,0.072 1.77,0.109 3.197,0.109l1.056,-0c0.885,-0 1.328,0.388 1.328,1.164c-0,0.994 -0.533,1.49 -1.599,1.49l-0.054,0c-3.594,-0.108 -6.366,-0.162 -8.316,-0.162c-1.066,-0 -2.416,0.027 -4.05,0.081c-1.634,0.054 -2.984,0.081 -4.05,0.081c-1.029,0 -1.553,-0.37 -1.571,-1.11c-0,-0.994 0.542,-1.508 1.625,-1.544l0.948,-0c1.969,-0 3.26,-0.073 3.874,-0.217l3.874,-15.603l-15.847,-0l-3.955,15.711c0.704,0.072 1.797,0.109 3.278,0.109l1.056,-0c0.885,-0 1.327,0.388 1.327,1.164c0,0.994 -0.532,1.49 -1.598,1.49l-0.054,0c-3.63,-0.108 -6.411,-0.162 -8.343,-0.162c-2.186,-0 -4.885,0.054 -8.1,0.162c-1.029,0 -1.544,-0.37 -1.544,-1.11Z" style="fill:#fff;fill-rule:nonzero;"/>
    <path d="M741.558,492.185l13.574,13.574l13.573,-13.574l-27.147,0Z" style="fill:#858585;"/>
</svg>
