<svg width="100%" height="100%" viewBox="0 0 1511 558" version="1.1" xmlns="http://www.w3.org/2000/svg" xmlns:xlink="http://www.w3.org/1999/xlink" xml:space="preserve" xmlns:serif="http://www.serif.com/" style="fill-rule:evenodd;clip-rule:evenodd;stroke-linecap:round;stroke-linejoin:round;stroke-miterlimit:1.5;">
    <rect id="involution_id" x="0" y="0" width="1510.26" height="557.735"/>
    <circle cx="462.191" cy="252.298" r="144.272" style="fill:#4c4c4c;"/>
    <circle cx="1043.53" cy="252.298" r="144.272" style="fill:#4c4c4c;"/>
    <path d="M441.468,465.176c-0,-2.998 0.591,-6.009 1.774,-9.034c1.183,-3.025 2.835,-5.797 4.957,-8.316c2.122,-2.52 4.876,-4.574 8.262,-6.163c3.386,-1.589 7.075,-2.384 11.066,-2.384c3.738,0 6.754,1.255 9.048,3.766c0.74,-0.56 1.463,-1.125 2.167,-1.694c0.704,-0.568 1.196,-0.975 1.476,-1.219c0.28,-0.243 0.565,-0.447 0.854,-0.609c0.289,-0.163 0.569,-0.244 0.839,-0.244c0.669,0 1.003,0.298 1.003,0.894c-0,0.181 -1.093,4.65 -3.278,13.409c-0.145,0.56 -0.312,0.926 -0.501,1.097c-0.19,0.172 -0.565,0.258 -1.124,0.258l-0.596,-0c-0.885,-0 -1.328,-0.335 -1.328,-1.003c0,-0.108 0.027,-0.424 0.082,-0.948c0.054,-0.524 0.081,-1.02 0.081,-1.49c-0,-1.065 -0.122,-2.108 -0.366,-3.128c-0.244,-1.021 -0.65,-2.041 -1.219,-3.062c-0.569,-1.02 -1.399,-1.837 -2.492,-2.451c-1.093,-0.614 -2.397,-0.921 -3.914,-0.921c-2.294,-0 -4.56,0.492 -6.8,1.476c-2.239,0.984 -4.171,2.416 -5.797,4.294c-2.185,2.51 -3.842,5.865 -4.971,10.063c-1.128,4.199 -1.693,7.427 -1.693,9.685c0,1.914 0.343,3.548 1.03,4.903c0.686,1.354 1.593,2.357 2.722,3.007c1.129,0.65 2.23,1.106 3.305,1.368c1.074,0.262 2.199,0.393 3.373,0.393c2.076,-0 3.76,-0.493 5.052,-1.477c1.291,-0.984 2.18,-1.991 2.668,-3.02c0.108,-0.217 0.677,-2.402 1.707,-6.556c-0.885,-0.072 -2.339,-0.108 -4.362,-0.108l-1.056,-0c-1.03,-0 -1.553,-0.388 -1.571,-1.165c-0,-0.993 0.541,-1.49 1.625,-1.49c0.144,0 0.492,0.009 1.043,0.027c0.551,0.018 1.557,0.036 3.02,0.054c1.463,0.018 3.323,0.027 5.581,0.027l1.544,0c1.101,0 2.474,-0.018 4.117,-0.054c0.109,0 0.822,-0.054 0.894,-0.054c0.813,0 1.219,0.37 1.219,1.111c0,1.029 -0.56,1.544 -1.679,1.544l-0.705,-0c-0.848,-0 -1.535,0.054 -2.058,0.162c-1.481,6.285 -2.42,10.078 -2.818,11.378c-0.18,0.632 -0.478,0.948 -0.894,0.948c-0.325,-0 -0.952,-0.289 -1.882,-0.867c-0.93,-0.578 -1.675,-1.12 -2.235,-1.625l-0.054,-0c-2.655,2.546 -6.258,3.819 -10.809,3.819c-1.445,0 -2.871,-0.131 -4.28,-0.393c-1.409,-0.261 -2.862,-0.731 -4.361,-1.408c-1.499,-0.677 -2.8,-1.535 -3.901,-2.574c-1.102,-1.038 -2.005,-2.438 -2.709,-4.198c-0.704,-1.761 -1.056,-3.77 -1.056,-6.028Z" style="fill:#fff;fill-rule:nonzero;"/>
    <path d="M739.42,163.956c-0,-3.919 1.585,-7.463 4.754,-10.632c3.169,-3.17 6.714,-4.754 10.632,-4.754c0.958,-0 2.362,0.149 4.213,0.447c1.851,0.298 3.237,0.447 4.158,0.447c1.264,-0 2.429,-0.186 3.494,-0.556c1.066,-0.37 1.906,-0.731 2.52,-1.083c0.614,-0.353 0.993,-0.529 1.137,-0.529c0.326,0 0.497,0.353 0.515,1.057c0,1.138 -0.095,2.013 -0.284,2.627c-0.19,0.615 -0.583,1.238 -1.179,1.87c-1.137,1.228 -2.483,1.932 -4.036,2.113c0.415,1.029 0.614,2.23 0.596,3.602c0,3.919 -1.67,7.45 -5.011,10.592c-3.341,3.143 -7.071,4.714 -11.188,4.714c-2.998,-0 -5.468,-0.912 -7.409,-2.736c-1.941,-1.824 -2.912,-4.217 -2.912,-7.179Zm6.176,1.165c0,2.221 0.47,3.905 1.409,5.052c0.939,1.147 2.131,1.72 3.576,1.72c2.329,0 4.393,-1.187 6.189,-3.562c1.797,-2.375 2.696,-5.151 2.696,-8.33c-0,-2.366 -0.519,-4.23 -1.558,-5.594c-1.038,-1.363 -2.406,-2.045 -4.104,-2.045c-1.553,0 -2.98,0.691 -4.28,2.072c-1.3,1.382 -2.28,3.039 -2.939,4.971c-0.659,1.933 -0.989,3.838 -0.989,5.716Z" style="fill:#fff;fill-rule:nonzero;"/>
    <path d="M1022.81,465.176c0,-2.998 0.592,-6.009 1.775,-9.034c1.183,-3.025 2.835,-5.797 4.957,-8.316c2.122,-2.52 4.876,-4.574 8.262,-6.163c3.386,-1.589 7.075,-2.384 11.066,-2.384c3.738,0 6.754,1.255 9.048,3.766c0.74,-0.56 1.463,-1.125 2.167,-1.694c0.704,-0.568 1.196,-0.975 1.476,-1.219c0.28,-0.243 0.565,-0.447 0.854,-0.609c0.289,-0.163 0.569,-0.244 0.839,-0.244c0.669,0 1.003,0.298 1.003,0.894c-0,0.181 -1.093,4.65 -3.278,13.409c-0.145,0.56 -0.312,0.926 -0.501,1.097c-0.19,0.172 -0.565,0.258 -1.124,0.258l-0.596,-0c-0.885,-0 -1.328,-0.335 -1.328,-1.003c0,-0.108 0.027,-0.424 0.082,-0.948c0.054,-0.524 0.081,-1.02 0.081,-1.49c-0,-1.065 -0.122,-2.108 -0.366,-3.128c-0.244,-1.021 -0.65,-2.041 -1.219,-3.062c-0.569,-1.02 -1.4,-1.837 -2.492,-2.451c-1.093,-0.614 -2.397,-0.921 -3.914,-0.921c-2.294,-0 -4.56,0.492 -6.8,1.476c-2.239,0.984 -4.172,2.416 -5.797,4.294c-2.185,2.51 -3.842,5.865 -4.971,10.063c-1.128,4.199 -1.693,7.427 -1.693,9.685c0,1.914 0.343,3.548 1.03,4.903c0.686,1.354 1.593,2.357 2.722,3.007c1.129,0.65 2.23,1.106 3.305,1.368c1.074,0.262 2.199,0.393 3.372,0.393c2.077,-0 3.761,-0.493 5.053,-1.477c1.291,-0.984 2.18,-1.991 2.668,-3.02c0.108,-0.217 0.677,-2.402 1.706,-6.556c-0.884,-0.072 -2.338,-0.108 -4.361,-0.108l-1.056,-0c-1.03,-0 -1.553,-0.388 -1.571,-1.165c-0,-0.993 0.541,-1.49 1.625,-1.49c0.144,0 0.492,0.009 1.043,0.027c0.551,0.018 1.557,0.036 3.02,0.054c1.463,0.018 3.323,0.027 5.581,0.027l1.544,0c1.101,0 2.474,-0.018 4.117,-0.054c0.109,0 0.822,-0.054 0.894,-0.054c0.813,0 1.219,0.37 1.219,1.111c0,1.029 -0.56,1.544 -1.679,1.544l-0.705,-0c-0.849,-0 -1.535,0.054 -2.058,0.162c-1.481,6.285 -2.42,10.078 -2.818,11.378c-0.18,0.632 -0.478,0.948 -0.894,0.948c-0.325,-0 -0.952,-0.289 -1.882,-0.867c-0.93,-0.578 -1.675,-1.12 -2.235,-1.625l-0.054,-0c-2.655,2.546 -6.258,3.819 -10.809,3.819c-1.445,0 -2.871,-0.131 -4.28,-0.393c-1.409,-0.261 -2.862,-0.731 -4.361,-1.408c-1.499,-0.677 -2.8,-1.535 -3.901,-2.574c-1.102,-1.038 -2.005,-2.438 -2.709,-4.198c-0.704,-1.761 -1.057,-3.77 -1.057,-6.028Z" style="fill:#fff;fill-rule:nonzero;"/>
    <circle cx="462.191" cy="344.013" r="7.286" style="fill:#fff;"/>
    <circle cx="1043.53" cy="344.013" r="7.286" style="fill:#fff;"/>
    <circle cx="462.191" cy="252.298" r="7.286" style="fill:#fff;"/>
    <circle cx="1043.53" cy="252.298" r="7.286" style="fill:#fff;"/>
    <circle cx="462.191" cy="160.584" r="7.286" style="fill:#fff;"/>
    <circle cx="1043.53" cy="160.584" r="7.286" style="fill:#fff;"/>
    <path d="M983.572,332.285l20.34,11.728l-21.586,9.235c5.552,-4.929 6.175,-15.411 1.246,-20.963Z" style="fill:#fff;"/>
    <path d="M505.957,160.584c-0,-0 160.816,3.428 249.175,91.787c71.022,71.022 188.604,87.078 232.01,90.645" style="fill:none;stroke:#fff;stroke-width:3.5px;"/>
    <path d="M982.326,151.348l21.586,9.236l-20.34,11.727c4.929,-5.552 4.306,-16.034 -1.246,-20.963Z" style="fill:#fff;"/>
    <path d="M505.957,344.013c-0,-0 160.816,-3.429 249.175,-91.788c71.022,-71.022 188.604,-87.078 232.01,-90.645" style="fill:none;stroke:#fff;stroke-width:3.5px;"/>
    <path d="M982.912,241.798l21,10.5l-21,10.5c5.25,-5.25 5.25,-15.75 0,-21Z" style="fill:#fff;"/>
    <path d="M505.957,252.298l481.155,0" style="fill:none;stroke:#fff;stroke-width:3.5px;"/>
</svg>
