<svg width="100%" height="100%" viewBox="0 0 1511 558" version="1.1" xmlns="http://www.w3.org/2000/svg" xml:space="preserve" style="fill-rule:evenodd;clip-rule:evenodd;stroke-linecap:round;stroke-linejoin:round;stroke-miterlimit:1.5;">
    <!-- <style>
        @keyframes scale {
            to { transform: scale(1); }
        }

        @keyframes fade {
            to { opacity: 1; }
        }

        .scale {
            transform-origin: center center;
            transform: scale(0);
        }

        .fade {
            opacity: 0;
        }

        .active .scale {
            animation: scale 1.5s ease-in-out forwards;
        }

        .active .fade {
            animation: fade 1s ease-in-out forwards;
        }

    </style> -->
    <rect id="involution" x="0" y="0" width="1510.26" height="557.735"/>
    <circle class="scale" cx="462.191" cy="252.298" r="144.272" style="fill:#4c4c4c;"/>
    <circle class="scale" cx="1043.53" cy="252.298" r="144.272" style="fill:#4c4c4c;"/>
    <path class="fade" d="M441.468,465.176c-0,-2.998 0.591,-6.009 1.774,-9.034c1.183,-3.025 2.835,-5.797 4.957,-8.316c2.122,-2.52 4.876,-4.574 8.262,-6.163c3.386,-1.589 7.075,-2.384 11.066,-2.384c3.738,0 6.754,1.255 9.048,3.766c0.74,-0.56 1.463,-1.125 2.167,-1.694c0.704,-0.568 1.196,-0.975 1.476,-1.219c0.28,-0.243 0.565,-0.447 0.854,-0.609c0.289,-0.163 0.569,-0.244 0.839,-0.244c0.669,0 1.003,0.298 1.003,0.894c-0,0.181 -1.093,4.65 -3.278,13.409c-0.145,0.56 -0.312,0.926 -0.501,1.097c-0.19,0.172 -0.565,0.258 -1.124,0.258l-0.596,-0c-0.885,-0 -1.328,-0.335 -1.328,-1.003c0,-0.108 0.027,-0.424 0.082,-0.948c0.054,-0.524 0.081,-1.02 0.081,-1.49c-0,-1.065 -0.122,-2.108 -0.366,-3.128c-0.244,-1.021 -0.65,-2.041 -1.219,-3.062c-0.569,-1.02 -1.399,-1.837 -2.492,-2.451c-1.093,-0.614 -2.397,-0.921 -3.914,-0.921c-2.294,-0 -4.56,0.492 -6.8,1.476c-2.239,0.984 -4.171,2.416 -5.797,4.294c-2.185,2.51 -3.842,5.865 -4.971,10.063c-1.128,4.199 -1.693,7.427 -1.693,9.685c0,1.914 0.343,3.548 1.03,4.903c0.686,1.354 1.593,2.357 2.722,3.007c1.129,0.65 2.23,1.106 3.305,1.368c1.074,0.262 2.199,0.393 3.373,0.393c2.076,-0 3.76,-0.493 5.052,-1.477c1.291,-0.984 2.18,-1.991 2.668,-3.02c0.108,-0.217 0.677,-2.402 1.707,-6.556c-0.885,-0.072 -2.339,-0.108 -4.362,-0.108l-1.056,-0c-1.03,-0 -1.553,-0.388 -1.571,-1.165c-0,-0.993 0.541,-1.49 1.625,-1.49c0.144,0 0.492,0.009 1.043,0.027c0.551,0.018 1.557,0.036 3.02,0.054c1.463,0.018 3.323,0.027 5.581,0.027l1.544,0c1.101,0 2.474,-0.018 4.117,-0.054c0.109,0 0.822,-0.054 0.894,-0.054c0.813,0 1.219,0.37 1.219,1.111c0,1.029 -0.56,1.544 -1.679,1.544l-0.705,-0c-0.848,-0 -1.535,0.054 -2.058,0.162c-1.481,6.285 -2.42,10.078 -2.818,11.378c-0.18,0.632 -0.478,0.948 -0.894,0.948c-0.325,-0 -0.952,-0.289 -1.882,-0.867c-0.93,-0.578 -1.675,-1.12 -2.235,-1.625l-0.054,-0c-2.655,2.546 -6.258,3.819 -10.809,3.819c-1.445,0 -2.871,-0.131 -4.28,-0.393c-1.409,-0.261 -2.862,-0.731 -4.361,-1.408c-1.499,-0.677 -2.8,-1.535 -3.901,-2.574c-1.102,-1.038 -2.005,-2.438 -2.709,-4.198c-0.704,-1.761 -1.056,-3.77 -1.056,-6.028Z" style="fill:#fff;fill-rule:nonzero;"/>
    <path class="fade" d="M447.292,261.806c-0,-1.336 0.415,-2.379 1.246,-3.128c0.83,-0.75 1.752,-1.125 2.763,-1.125c0.74,0 1.377,0.231 1.91,0.691c0.532,0.461 0.799,1.079 0.799,1.856c-0,1.77 -0.939,3.007 -2.818,3.711c0.705,0.596 1.454,0.894 2.249,0.894c1.372,-0 2.483,-0.849 3.332,-2.547c0.524,-0.921 1.35,-3.697 2.478,-8.329c1.129,-4.633 1.694,-7.373 1.694,-8.222c-0,-0.957 -0.276,-1.648 -0.827,-2.072c-0.55,-0.425 -1.196,-0.637 -1.937,-0.637c-1.372,0 -2.717,0.574 -4.036,1.72c-1.318,1.147 -2.284,2.587 -2.898,4.321c-0.217,0.668 -0.411,1.084 -0.583,1.246c-0.171,0.163 -0.519,0.262 -1.043,0.298l-0.271,0c-0.957,0 -1.435,-0.289 -1.435,-0.867c-0,-0.451 0.221,-1.128 0.663,-2.031c0.443,-0.903 1.07,-1.874 1.883,-2.913c0.813,-1.038 1.941,-1.936 3.386,-2.695c1.445,-0.758 2.998,-1.138 4.66,-1.138c3.033,0 5.309,1.003 6.826,3.007c1.914,-2.004 3.82,-3.007 5.716,-3.007c1.589,0 2.993,0.443 4.212,1.328c1.219,0.885 1.829,2.104 1.829,3.657c-0,1.336 -0.416,2.384 -1.246,3.142c-0.831,0.759 -1.752,1.138 -2.764,1.138c-0.776,-0 -1.422,-0.239 -1.936,-0.718c-0.515,-0.479 -0.772,-1.106 -0.772,-1.883c-0,-1.77 0.948,-3.007 2.844,-3.711c-0.704,-0.596 -1.463,-0.894 -2.276,-0.894c-0.523,0 -1.006,0.108 -1.449,0.325c-0.442,0.217 -0.849,0.623 -1.219,1.219c-0.37,0.596 -0.686,1.161 -0.948,1.693c-0.262,0.533 -0.551,1.337 -0.867,2.411c-0.316,1.075 -0.564,1.982 -0.745,2.723c-0.18,0.74 -0.447,1.851 -0.799,3.332c-0.352,1.48 -0.637,2.645 -0.853,3.494c-0.452,1.77 -0.677,3.061 -0.677,3.874c-0,0.957 0.288,1.652 0.866,2.086c0.578,0.433 1.237,0.65 1.978,0.65c1.372,-0 2.713,-0.574 4.023,-1.72c1.309,-1.147 2.28,-2.569 2.912,-4.267c0.036,-0.072 0.072,-0.185 0.108,-0.338c0.036,-0.154 0.072,-0.258 0.108,-0.312c0.037,-0.054 0.073,-0.135 0.109,-0.244c0.036,-0.108 0.063,-0.18 0.081,-0.217c0.018,-0.036 0.054,-0.094 0.108,-0.176c0.055,-0.081 0.118,-0.131 0.19,-0.149c0.072,-0.018 0.144,-0.045 0.217,-0.081c0.072,-0.036 0.158,-0.054 0.257,-0.054l0.691,-0c0.957,-0 1.436,0.28 1.436,0.84c-0,1.372 -1.016,3.178 -3.048,5.418c-2.032,2.239 -4.528,3.359 -7.49,3.359c-3.215,-0 -5.526,-1.003 -6.935,-3.007l-0.054,-0c-1.625,2.004 -3.513,3.007 -5.662,3.007c-1.553,-0 -2.939,-0.438 -4.158,-1.314c-1.219,-0.876 -1.828,-2.091 -1.828,-3.644Z" style="fill:#fff;fill-rule:nonzero;"/>
    <path class="fade" d="M993.271,256.551c0,-3.919 1.585,-7.463 4.754,-10.632c3.17,-3.17 6.714,-4.755 10.633,-4.755c0.957,0 2.361,0.149 4.212,0.447c1.851,0.298 3.237,0.447 4.158,0.447c1.265,0 2.429,-0.185 3.495,-0.555c1.065,-0.37 1.905,-0.731 2.519,-1.084c0.614,-0.352 0.993,-0.528 1.138,-0.528c0.325,0 0.497,0.352 0.515,1.057c-0,1.137 -0.095,2.013 -0.285,2.627c-0.189,0.614 -0.582,1.237 -1.178,1.87c-1.138,1.228 -2.483,1.932 -4.036,2.112c0.415,1.03 0.614,2.231 0.595,3.603c0,3.919 -1.67,7.45 -5.011,10.592c-3.341,3.142 -7.07,4.714 -11.188,4.714c-2.998,-0 -5.467,-0.912 -7.409,-2.736c-1.941,-1.824 -2.912,-4.217 -2.912,-7.179Zm6.177,1.165c-0,2.221 0.469,3.905 1.408,5.052c0.939,1.147 2.131,1.72 3.576,1.72c2.33,0 4.393,-1.187 6.19,-3.562c1.797,-2.375 2.695,-5.152 2.695,-8.33c0,-2.366 -0.519,-4.23 -1.557,-5.594c-1.039,-1.363 -2.407,-2.045 -4.104,-2.045c-1.554,-0 -2.98,0.691 -4.28,2.072c-1.301,1.382 -2.28,3.039 -2.94,4.971c-0.659,1.932 -0.988,3.838 -0.988,5.716Z" style="fill:#fff;fill-rule:nonzero;"/>
    <path class="fade" d="M1031.17,262.158c-0,-2.997 0.388,-6.144 1.165,-9.44c0.776,-3.296 1.923,-6.61 3.44,-9.942c1.517,-3.332 3.571,-6.551 6.163,-9.657c2.591,-3.106 5.53,-5.743 8.817,-7.91c0.56,-0.415 1.057,-0.623 1.49,-0.623c0.632,-0 0.948,0.244 0.948,0.731c0,0.145 -0.054,0.298 -0.162,0.461c-0.109,0.162 -0.217,0.293 -0.325,0.393c-0.109,0.099 -0.858,0.708 -0.894,0.745c-3.558,3.142 -6.592,7.174 -9.102,12.095c-2.51,4.921 -4.285,9.598 -5.323,14.032c-1.039,4.434 -1.558,8.538 -1.558,12.312c0,2.077 0.185,4.005 0.556,5.783c0.37,1.779 0.758,3.102 1.164,3.969c0.407,0.867 0.84,1.698 1.301,2.492c0.46,0.795 0.708,1.228 0.745,1.3c0.108,0.253 0.081,0.502 -0.082,0.745c-0.162,0.244 -0.406,0.366 -0.731,0.366l-0.054,0c-0.325,0 -0.777,-0.248 -1.355,-0.745c-0.578,-0.496 -1.228,-1.255 -1.95,-2.275c-0.723,-1.021 -1.4,-2.213 -2.032,-3.576c-0.632,-1.364 -1.16,-3.043 -1.585,-5.039c-0.424,-1.995 -0.636,-4.067 -0.636,-6.217Z" style="fill:#fff;fill-rule:nonzero;"/>
    <path class="fade" d="M1051.73,261.806c0,-1.336 0.416,-2.379 1.247,-3.128c0.83,-0.75 1.751,-1.125 2.763,-1.125c0.74,0 1.377,0.231 1.909,0.691c0.533,0.461 0.8,1.079 0.8,1.856c-0,1.77 -0.94,3.007 -2.818,3.711c0.705,0.596 1.454,0.894 2.249,0.894c1.372,-0 2.483,-0.849 3.332,-2.547c0.523,-0.921 1.35,-3.697 2.478,-8.329c1.129,-4.633 1.693,-7.373 1.693,-8.222c0,-0.957 -0.275,-1.648 -0.826,-2.072c-0.551,-0.425 -1.196,-0.637 -1.937,-0.637c-1.372,0 -2.718,0.574 -4.036,1.72c-1.318,1.147 -2.285,2.587 -2.899,4.321c-0.216,0.668 -0.41,1.084 -0.582,1.246c-0.172,0.163 -0.519,0.262 -1.043,0.298l-0.271,0c-0.957,0 -1.435,-0.289 -1.435,-0.867c-0,-0.451 0.221,-1.128 0.663,-2.031c0.443,-0.903 1.07,-1.874 1.883,-2.913c0.813,-1.038 1.941,-1.936 3.386,-2.695c1.445,-0.758 2.998,-1.138 4.659,-1.138c3.034,0 5.31,1.003 6.827,3.007c1.914,-2.004 3.819,-3.007 5.716,-3.007c1.589,0 2.993,0.443 4.212,1.328c1.219,0.885 1.828,2.104 1.828,3.657c0,1.336 -0.415,2.384 -1.246,3.142c-0.83,0.759 -1.751,1.138 -2.763,1.138c-0.776,-0 -1.422,-0.239 -1.937,-0.718c-0.514,-0.479 -0.772,-1.106 -0.772,-1.883c0,-1.77 0.948,-3.007 2.845,-3.711c-0.705,-0.596 -1.463,-0.894 -2.276,-0.894c-0.524,0 -1.007,0.108 -1.449,0.325c-0.443,0.217 -0.849,0.623 -1.219,1.219c-0.37,0.596 -0.686,1.161 -0.948,1.693c-0.262,0.533 -0.551,1.337 -0.867,2.411c-0.316,1.075 -0.564,1.982 -0.745,2.723c-0.181,0.74 -0.447,1.851 -0.799,3.332c-0.352,1.48 -0.637,2.645 -0.853,3.494c-0.452,1.77 -0.678,3.061 -0.678,3.874c0,0.957 0.289,1.652 0.867,2.086c0.578,0.433 1.237,0.65 1.978,0.65c1.372,-0 2.713,-0.574 4.022,-1.72c1.31,-1.147 2.28,-2.569 2.913,-4.267c0.036,-0.072 0.072,-0.185 0.108,-0.338c0.036,-0.154 0.072,-0.258 0.108,-0.312c0.036,-0.054 0.072,-0.135 0.109,-0.244c0.036,-0.108 0.063,-0.18 0.081,-0.217c0.018,-0.036 0.054,-0.094 0.108,-0.176c0.054,-0.081 0.118,-0.131 0.19,-0.149c0.072,-0.018 0.144,-0.045 0.217,-0.081c0.072,-0.036 0.158,-0.054 0.257,-0.054l0.691,-0c0.957,-0 1.435,0.28 1.435,0.84c0,1.372 -1.015,3.178 -3.047,5.418c-2.032,2.239 -4.529,3.359 -7.49,3.359c-3.215,-0 -5.526,-1.003 -6.935,-3.007l-0.054,-0c-1.626,2.004 -3.513,3.007 -5.662,3.007c-1.553,-0 -2.939,-0.438 -4.158,-1.314c-1.219,-0.876 -1.829,-2.091 -1.829,-3.644Z" style="fill:#fff;fill-rule:nonzero;"/>
    <path class="fade" d="M1080.9,279.279c0,-0.325 0.389,-0.822 1.165,-1.49c2.962,-2.583 5.549,-5.707 7.761,-9.373c2.212,-3.666 3.892,-7.328 5.039,-10.985c1.147,-3.657 1.991,-7.02 2.533,-10.09c0.541,-3.07 0.812,-5.788 0.812,-8.154c0,-2.113 -0.185,-4.059 -0.555,-5.838c-0.37,-1.779 -0.763,-3.101 -1.178,-3.968c-0.416,-0.867 -0.854,-1.689 -1.314,-2.465c-0.461,-0.777 -0.709,-1.201 -0.745,-1.274c-0.109,-0.252 -0.077,-0.492 0.095,-0.717c0.171,-0.226 0.419,-0.339 0.745,-0.339c0.325,-0 0.776,0.239 1.354,0.718c0.578,0.478 1.228,1.237 1.95,2.275c0.723,1.039 1.405,2.231 2.046,3.576c0.641,1.345 1.178,3.02 1.611,5.025c0.434,2.005 0.651,4.072 0.651,6.203c-0,2.998 -0.389,6.154 -1.165,9.468c-0.777,3.314 -1.933,6.637 -3.468,9.969c-1.535,3.332 -3.607,6.56 -6.217,9.684c-2.609,3.124 -5.557,5.779 -8.844,7.964c-0.488,0.362 -0.939,0.542 -1.355,0.542c-0.614,0 -0.921,-0.244 -0.921,-0.731Z" style="fill:#fff;fill-rule:nonzero;"/>
    <path class="fade" d="M739.42,98.111c-0,-3.919 1.585,-7.463 4.754,-10.632c3.169,-3.17 6.714,-4.755 10.632,-4.755c0.958,0 2.362,0.149 4.213,0.447c1.851,0.298 3.237,0.447 4.158,0.447c1.264,0 2.429,-0.185 3.494,-0.555c1.066,-0.37 1.906,-0.731 2.52,-1.084c0.614,-0.352 0.993,-0.528 1.137,-0.528c0.326,0 0.497,0.352 0.515,1.057c0,1.137 -0.095,2.013 -0.284,2.627c-0.19,0.614 -0.583,1.237 -1.179,1.87c-1.137,1.228 -2.483,1.932 -4.036,2.112c0.415,1.03 0.614,2.231 0.596,3.603c0,3.919 -1.67,7.45 -5.011,10.592c-3.341,3.142 -7.071,4.714 -11.188,4.714c-2.998,-0 -5.468,-0.912 -7.409,-2.736c-1.941,-1.824 -2.912,-4.217 -2.912,-7.179Zm6.176,1.165c0,2.221 0.47,3.905 1.409,5.052c0.939,1.147 2.131,1.72 3.576,1.72c2.329,0 4.393,-1.187 6.189,-3.562c1.797,-2.375 2.696,-5.152 2.696,-8.33c-0,-2.366 -0.519,-4.23 -1.558,-5.594c-1.038,-1.363 -2.406,-2.045 -4.104,-2.045c-1.553,-0 -2.98,0.691 -4.28,2.072c-1.3,1.382 -2.28,3.039 -2.939,4.971c-0.659,1.932 -0.989,3.838 -0.989,5.716Z" style="fill:#fff;fill-rule:nonzero;"/>
    <path class="fade" d="M739.42,413.23c-0,-3.919 1.585,-7.463 4.754,-10.632c3.169,-3.17 6.714,-4.754 10.632,-4.754c0.958,-0 2.362,0.149 4.213,0.447c1.851,0.298 3.237,0.447 4.158,0.447c1.264,-0 2.429,-0.186 3.494,-0.556c1.066,-0.37 1.906,-0.731 2.52,-1.083c0.614,-0.352 0.993,-0.529 1.137,-0.529c0.326,0 0.497,0.353 0.515,1.057c0,1.138 -0.095,2.014 -0.284,2.628c-0.19,0.614 -0.583,1.237 -1.179,1.869c-1.137,1.228 -2.483,1.932 -4.036,2.113c0.415,1.029 0.614,2.23 0.596,3.603c0,3.918 -1.67,7.449 -5.011,10.591c-3.341,3.143 -7.071,4.714 -11.188,4.714c-2.998,-0 -5.468,-0.912 -7.409,-2.736c-1.941,-1.824 -2.912,-4.217 -2.912,-7.179Zm6.176,1.165c0,2.221 0.47,3.905 1.409,5.052c0.939,1.147 2.131,1.72 3.576,1.72c2.329,0 4.393,-1.187 6.189,-3.562c1.797,-2.375 2.696,-5.151 2.696,-8.33c-0,-2.366 -0.519,-4.23 -1.558,-5.594c-1.038,-1.363 -2.406,-2.045 -4.104,-2.045c-1.553,0 -2.98,0.691 -4.28,2.072c-1.3,1.382 -2.28,3.039 -2.939,4.971c-0.659,1.933 -0.989,3.838 -0.989,5.716Z" style="fill:#fff;fill-rule:nonzero;"/>
    <path class="fade" d="M1022.81,465.176c0,-2.998 0.592,-6.009 1.775,-9.034c1.183,-3.025 2.835,-5.797 4.957,-8.316c2.122,-2.52 4.876,-4.574 8.262,-6.163c3.386,-1.589 7.075,-2.384 11.066,-2.384c3.738,0 6.754,1.255 9.048,3.766c0.74,-0.56 1.463,-1.125 2.167,-1.694c0.704,-0.568 1.196,-0.975 1.476,-1.219c0.28,-0.243 0.565,-0.447 0.854,-0.609c0.289,-0.163 0.569,-0.244 0.839,-0.244c0.669,0 1.003,0.298 1.003,0.894c-0,0.181 -1.093,4.65 -3.278,13.409c-0.145,0.56 -0.312,0.926 -0.501,1.097c-0.19,0.172 -0.565,0.258 -1.124,0.258l-0.596,-0c-0.885,-0 -1.328,-0.335 -1.328,-1.003c0,-0.108 0.027,-0.424 0.082,-0.948c0.054,-0.524 0.081,-1.02 0.081,-1.49c-0,-1.065 -0.122,-2.108 -0.366,-3.128c-0.244,-1.021 -0.65,-2.041 -1.219,-3.062c-0.569,-1.02 -1.4,-1.837 -2.492,-2.451c-1.093,-0.614 -2.397,-0.921 -3.914,-0.921c-2.294,-0 -4.56,0.492 -6.8,1.476c-2.239,0.984 -4.172,2.416 -5.797,4.294c-2.185,2.51 -3.842,5.865 -4.971,10.063c-1.128,4.199 -1.693,7.427 -1.693,9.685c0,1.914 0.343,3.548 1.03,4.903c0.686,1.354 1.593,2.357 2.722,3.007c1.129,0.65 2.23,1.106 3.305,1.368c1.074,0.262 2.199,0.393 3.372,0.393c2.077,-0 3.761,-0.493 5.053,-1.477c1.291,-0.984 2.18,-1.991 2.668,-3.02c0.108,-0.217 0.677,-2.402 1.706,-6.556c-0.884,-0.072 -2.338,-0.108 -4.361,-0.108l-1.056,-0c-1.03,-0 -1.553,-0.388 -1.571,-1.165c-0,-0.993 0.541,-1.49 1.625,-1.49c0.144,0 0.492,0.009 1.043,0.027c0.551,0.018 1.557,0.036 3.02,0.054c1.463,0.018 3.323,0.027 5.581,0.027l1.544,0c1.101,0 2.474,-0.018 4.117,-0.054c0.109,0 0.822,-0.054 0.894,-0.054c0.813,0 1.219,0.37 1.219,1.111c0,1.029 -0.56,1.544 -1.679,1.544l-0.705,-0c-0.849,-0 -1.535,0.054 -2.058,0.162c-1.481,6.285 -2.42,10.078 -2.818,11.378c-0.18,0.632 -0.478,0.948 -0.894,0.948c-0.325,-0 -0.952,-0.289 -1.882,-0.867c-0.93,-0.578 -1.675,-1.12 -2.235,-1.625l-0.054,-0c-2.655,2.546 -6.258,3.819 -10.809,3.819c-1.445,0 -2.871,-0.131 -4.28,-0.393c-1.409,-0.261 -2.862,-0.731 -4.361,-1.408c-1.499,-0.677 -2.8,-1.535 -3.901,-2.574c-1.102,-1.038 -2.005,-2.438 -2.709,-4.198c-0.704,-1.761 -1.057,-3.77 -1.057,-6.028Z" style="fill:#fff;fill-rule:nonzero;"/>
    <path d="M491.096,318.868l-8.472,-21.897l22.6,6.361c-7.416,0.351 -14.48,8.12 -14.128,15.536Z" style="fill:#fff;"/>
    <path d="M1027.64,296.971c-42.931,45.035 -148.819,76.923 -272.507,76.923c-113.064,0 -211.253,-26.645 -260.079,-65.62" style="fill:none;stroke:#fff;stroke-width:3.5px;"/>
    <path d="M1019.17,185.728l8.472,21.897l-22.6,-6.36c7.416,-0.352 14.48,-8.121 14.128,-15.537Z" style="fill:#fff;"/>
    <path d="M482.624,207.625c42.931,-45.035 148.819,-76.923 272.508,-76.923c113.063,-0 211.252,26.645 260.078,65.62" style="fill:none;stroke:#fff;stroke-width:3.5px;"/>
</svg>
