<svg width="100%" height="100%" viewBox="0 0 1511 558" version="1.1" xmlns="http://www.w3.org/2000/svg" xmlns:xlink="http://www.w3.org/1999/xlink" xml:space="preserve" xmlns:serif="http://www.serif.com/" style="fill-rule:evenodd;clip-rule:evenodd;stroke-linecap:round;stroke-linejoin:round;stroke-miterlimit:1.5;">
    <rect id="involution_id" x="0" y="0" width="1510.26" height="557.735"/>
    <path d="M736.002,448.108c0,-1.138 0.397,-2.109 1.192,-2.913c0.795,-0.803 1.734,-1.205 2.817,-1.205c0.777,-0 1.422,0.235 1.937,0.704c0.515,0.47 0.772,1.093 0.772,1.869c0,1.662 -0.812,2.863 -2.438,3.603c0.813,0.325 1.382,0.488 1.707,0.488c1.138,-0 2.004,-0.989 2.6,-2.966c0.596,-1.978 1.562,-6.633 2.899,-13.965l2.655,-14.465l-4.714,-0l-0.054,0.054l-0.163,-0c-1.029,-0 -1.544,-0.388 -1.544,-1.165c0,-0.993 0.551,-1.49 1.653,-1.49l5.282,0l0.054,-0.054c0.849,-5.653 1.897,-9.355 3.143,-11.107c0.776,-1.065 1.787,-1.896 3.034,-2.492c1.246,-0.596 2.51,-0.894 3.792,-0.894c1.77,0 3.251,0.434 4.443,1.301c1.192,0.866 1.788,1.968 1.788,3.304c-0,1.265 -0.407,2.267 -1.219,3.007c-0.813,0.741 -1.725,1.111 -2.736,1.111c-0.777,0 -1.423,-0.235 -1.937,-0.704c-0.515,-0.47 -0.772,-1.093 -0.772,-1.869c-0,-1.59 0.794,-2.773 2.383,-3.549c-0.668,-0.325 -1.237,-0.488 -1.706,-0.488c-0.921,0 -1.625,0.479 -2.113,1.436c-0.145,0.289 -0.402,1.341 -0.772,3.156c-0.37,1.815 -0.704,3.558 -1.002,5.228c-0.298,1.671 -0.447,2.542 -0.447,2.614l5.986,0c1.03,0 1.544,0.37 1.544,1.111c0,1.029 -0.55,1.544 -1.652,1.544c-0.036,-0 -0.054,-0.009 -0.054,-0.027c-0,-0.018 -0.018,-0.027 -0.054,-0.027l-6.285,-0c-2.005,11.576 -3.422,18.971 -4.253,22.186c-0.596,2.185 -1.264,4.027 -2.005,5.526c-0.74,1.499 -1.815,2.817 -3.223,3.955c-1.481,1.192 -2.998,1.788 -4.551,1.788c-1.517,-0 -2.894,-0.398 -4.131,-1.192c-1.237,-0.795 -1.856,-1.933 -1.856,-3.413Z" style="fill:#fff;fill-rule:nonzero;"/>
    <path d="M854.873,226.209c-0,-2.745 1.571,-5.282 4.713,-7.612c3.143,-2.329 7.54,-3.819 13.193,-4.47c0.776,-0.072 1.201,-0.189 1.273,-0.352c0.072,-0.108 0.406,-1.327 1.002,-3.657c0.145,-0.632 0.316,-1.282 0.515,-1.95l-7.504,-0l0.677,-2.655l7.585,0.163l7.179,-0l7.531,-0.163l-0.678,2.655l-7.476,-0l-1.436,5.824c4.334,0.217 7.838,1.106 10.511,2.668c2.672,1.562 4.009,3.635 4.009,6.217c-0,1.969 -0.777,3.82 -2.33,5.553c-1.553,1.734 -3.639,3.161 -6.257,4.281c-3.323,1.408 -7.08,2.203 -11.269,2.383l-1.436,5.825l7.476,-0l-0.65,2.654c-4.551,-0.108 -8.063,-0.162 -10.537,-0.162c-3.919,-0 -7.82,0.054 -11.703,0.162l0.596,-2.654l7.558,-0l1.436,-5.825c-5.039,-0.451 -8.628,-1.508 -10.768,-3.169c-2.14,-1.661 -3.21,-3.567 -3.21,-5.716Zm7.991,1.165c0,1.409 0.433,2.61 1.3,3.603c0.867,0.993 2.592,1.661 5.174,2.004l4.226,-16.876c-3.214,0.451 -5.562,1.35 -7.043,2.695c-1.481,1.346 -2.537,3.165 -3.169,5.459c-0.325,1.3 -0.488,2.338 -0.488,3.115Zm13.815,5.662c1.969,-0.217 3.635,-0.596 4.998,-1.138c1.364,-0.542 2.425,-1.237 3.183,-2.086c0.759,-0.849 1.314,-1.616 1.666,-2.303c0.352,-0.686 0.655,-1.508 0.908,-2.465c0.361,-1.481 0.542,-2.609 0.542,-3.386c-0,-1.517 -0.488,-2.745 -1.463,-3.684c-0.975,-0.939 -2.836,-1.598 -5.581,-1.977l-4.253,17.039Z" style="fill:#fff;fill-rule:nonzero;"/>
    <path d="M574.251,401.216c-0,-0.289 0.966,-4.171 2.898,-11.648c0.181,-0.632 0.361,-1.011 0.542,-1.138c0.18,-0.126 0.623,-0.189 1.327,-0.189c0.885,-0 1.328,0.298 1.328,0.894c-0,0.144 -0.064,0.569 -0.19,1.273c-0.126,0.704 -0.19,1.291 -0.19,1.761c0,1.806 0.511,3.286 1.531,4.442c1.02,1.156 2.158,1.919 3.413,2.289c1.255,0.37 2.605,0.556 4.05,0.556c2.709,-0 4.826,-0.98 6.352,-2.94c1.526,-1.959 2.289,-3.977 2.289,-6.054c0,-1.445 -0.397,-2.564 -1.192,-3.359c-0.794,-0.795 -1.819,-1.341 -3.074,-1.639c-1.255,-0.298 -2.556,-0.573 -3.901,-0.826c-1.345,-0.253 -2.695,-0.732 -4.05,-1.436c-1.354,-0.704 -2.402,-1.688 -3.142,-2.953c-0.849,-1.48 -1.273,-3.052 -1.273,-4.713c-0,-1.481 0.316,-3.016 0.948,-4.605c0.632,-1.589 1.53,-3.088 2.695,-4.497c1.165,-1.409 2.7,-2.564 4.605,-3.467c1.906,-0.903 3.987,-1.355 6.244,-1.355c3.395,0 6.014,1.039 7.856,3.115c0.217,-0.216 0.474,-0.456 0.772,-0.717c0.298,-0.262 0.533,-0.47 0.704,-0.623c0.172,-0.154 0.348,-0.321 0.529,-0.502c0.18,-0.18 0.338,-0.316 0.474,-0.406c0.135,-0.09 0.266,-0.194 0.393,-0.311c0.126,-0.118 0.234,-0.204 0.325,-0.258c0.09,-0.054 0.189,-0.108 0.298,-0.162c0.108,-0.055 0.203,-0.091 0.284,-0.109c0.081,-0.018 0.176,-0.027 0.284,-0.027c0.669,0 1.003,0.298 1.003,0.894c-0,0.253 -0.966,4.172 -2.899,11.757c-0.108,0.415 -0.235,0.704 -0.379,0.867c-0.144,0.162 -0.284,0.261 -0.42,0.298c-0.135,0.036 -0.366,0.054 -0.691,0.054l-0.108,-0c-0.632,-0 -1.052,-0.063 -1.26,-0.19c-0.207,-0.126 -0.311,-0.379 -0.311,-0.758c-0,-0.109 0.031,-0.47 0.095,-1.084c0.063,-0.614 0.094,-1.174 0.094,-1.679c0,-2.818 -0.695,-4.818 -2.085,-6.001c-1.391,-1.183 -3.107,-1.774 -5.147,-1.774c-2.619,0 -4.66,0.88 -6.122,2.641c-1.463,1.761 -2.195,3.562 -2.195,5.404c0,1.301 0.371,2.321 1.111,3.062c0.74,0.74 1.711,1.255 2.912,1.544c1.201,0.289 2.452,0.555 3.752,0.799c1.3,0.244 2.614,0.681 3.941,1.314c1.328,0.632 2.38,1.48 3.156,2.546c1.138,1.589 1.716,3.476 1.734,5.662c-0,1.553 -0.316,3.178 -0.948,4.876c-0.632,1.697 -1.522,3.323 -2.668,4.876c-1.147,1.553 -2.709,2.839 -4.687,3.86c-1.977,1.02 -4.149,1.53 -6.515,1.53c-3.846,0 -6.971,-1.038 -9.373,-3.115c-2.076,1.878 -3.286,2.881 -3.63,3.007c-0.144,0.072 -0.307,0.108 -0.487,0.108c-0.668,0 -1.002,-0.298 -1.002,-0.894Z" style="fill:#fff;fill-rule:nonzero;"/>
    <path d="M894.566,387.509c0,-2.998 0.592,-6.009 1.775,-9.034c1.182,-3.025 2.835,-5.797 4.957,-8.316c2.122,-2.519 4.876,-4.574 8.262,-6.163c3.386,-1.589 7.075,-2.384 11.066,-2.384c3.738,0 6.754,1.255 9.048,3.766c0.74,-0.56 1.462,-1.125 2.167,-1.693c0.704,-0.569 1.196,-0.976 1.476,-1.219c0.28,-0.244 0.564,-0.447 0.853,-0.61c0.289,-0.163 0.569,-0.244 0.84,-0.244c0.668,0 1.003,0.298 1.003,0.894c-0,0.181 -1.093,4.65 -3.278,13.409c-0.145,0.56 -0.312,0.926 -0.501,1.097c-0.19,0.172 -0.565,0.258 -1.125,0.258l-0.596,-0c-0.884,-0 -1.327,-0.334 -1.327,-1.003c0,-0.108 0.027,-0.424 0.081,-0.948c0.055,-0.523 0.082,-1.02 0.082,-1.49c-0,-1.065 -0.122,-2.108 -0.366,-3.128c-0.244,-1.021 -0.65,-2.041 -1.219,-3.061c-0.569,-1.021 -1.4,-1.838 -2.492,-2.452c-1.093,-0.614 -2.398,-0.921 -3.915,-0.921c-2.293,-0 -4.56,0.492 -6.799,1.476c-2.239,0.985 -4.172,2.416 -5.797,4.294c-2.185,2.51 -3.842,5.865 -4.971,10.063c-1.129,4.199 -1.693,7.427 -1.693,9.685c0,1.914 0.343,3.548 1.029,4.903c0.687,1.354 1.594,2.357 2.723,3.007c1.129,0.65 2.23,1.106 3.305,1.368c1.074,0.262 2.198,0.393 3.372,0.393c2.077,-0 3.761,-0.493 5.052,-1.477c1.292,-0.984 2.181,-1.991 2.669,-3.02c0.108,-0.217 0.677,-2.402 1.706,-6.556c-0.885,-0.072 -2.338,-0.108 -4.361,-0.108l-1.057,-0c-1.029,-0 -1.553,-0.388 -1.571,-1.165c0,-0.993 0.542,-1.49 1.626,-1.49c0.144,0 0.492,0.009 1.043,0.027c0.55,0.018 1.557,0.036 3.02,0.054c1.463,0.019 3.323,0.028 5.58,0.028l1.544,-0c1.102,-0 2.475,-0.019 4.118,-0.055c0.108,0 0.822,-0.054 0.894,-0.054c0.813,0 1.219,0.37 1.219,1.111c-0,1.029 -0.56,1.544 -1.68,1.544l-0.704,-0c-0.849,-0 -1.535,0.054 -2.059,0.162c-1.481,6.285 -2.42,10.078 -2.817,11.378c-0.181,0.632 -0.479,0.948 -0.894,0.948c-0.325,-0 -0.953,-0.289 -1.883,-0.867c-0.93,-0.578 -1.675,-1.12 -2.234,-1.625l-0.055,-0c-2.654,2.546 -6.257,3.819 -10.808,3.819c-1.445,0 -2.872,-0.131 -4.28,-0.392c-1.409,-0.262 -2.863,-0.732 -4.362,-1.409c-1.498,-0.677 -2.799,-1.535 -3.9,-2.574c-1.102,-1.038 -2.005,-2.438 -2.709,-4.198c-0.705,-1.761 -1.057,-3.77 -1.057,-6.028Z" style="fill:#fff;fill-rule:nonzero;"/>
    <path d="M767.718,141.599c-0,-0.155 0.515,-2.224 1.545,-6.209c0.096,-0.337 0.192,-0.539 0.289,-0.607c0.096,-0.067 0.332,-0.101 0.707,-0.101c0.472,0 0.708,0.159 0.708,0.477c-0,0.077 -0.034,0.303 -0.101,0.678c-0.068,0.376 -0.101,0.689 -0.101,0.939c-0,0.962 0.272,1.752 0.815,2.368c0.544,0.616 1.151,1.023 1.82,1.22c0.669,0.197 1.388,0.296 2.158,0.296c1.444,-0 2.573,-0.522 3.386,-1.567c0.814,-1.044 1.22,-2.12 1.22,-3.227c0,-0.77 -0.211,-1.367 -0.635,-1.79c-0.423,-0.424 -0.97,-0.715 -1.639,-0.874c-0.669,-0.159 -1.362,-0.305 -2.079,-0.44c-0.717,-0.135 -1.437,-0.39 -2.159,-0.765c-0.722,-0.376 -1.28,-0.9 -1.675,-1.574c-0.452,-0.79 -0.678,-1.627 -0.678,-2.513c-0,-0.789 0.168,-1.607 0.505,-2.454c0.337,-0.847 0.816,-1.646 1.437,-2.397c0.621,-0.751 1.439,-1.367 2.455,-1.848c1.015,-0.482 2.124,-0.722 3.328,-0.722c1.809,-0 3.205,0.553 4.187,1.66c0.116,-0.115 0.253,-0.243 0.412,-0.382c0.158,-0.14 0.284,-0.251 0.375,-0.333c0.091,-0.081 0.185,-0.17 0.282,-0.267c0.096,-0.096 0.18,-0.168 0.252,-0.216c0.072,-0.048 0.142,-0.104 0.21,-0.166c0.067,-0.063 0.125,-0.109 0.173,-0.138c0.048,-0.028 0.101,-0.057 0.159,-0.086c0.057,-0.029 0.108,-0.048 0.151,-0.058c0.044,-0.01 0.094,-0.014 0.152,-0.014c0.356,-0 0.534,0.158 0.534,0.476c0,0.135 -0.515,2.224 -1.545,6.267c-0.058,0.221 -0.125,0.375 -0.202,0.462c-0.077,0.086 -0.152,0.139 -0.224,0.159c-0.072,0.019 -0.195,0.028 -0.368,0.028l-0.058,0c-0.337,0 -0.56,-0.033 -0.671,-0.101c-0.111,-0.067 -0.166,-0.202 -0.166,-0.404c-0,-0.058 0.017,-0.25 0.05,-0.577c0.034,-0.328 0.051,-0.626 0.051,-0.896c-0,-1.501 -0.371,-2.567 -1.112,-3.198c-0.741,-0.63 -1.656,-0.946 -2.743,-0.946c-1.396,0 -2.484,0.47 -3.264,1.408c-0.779,0.939 -1.169,1.899 -1.169,2.881c-0,0.693 0.197,1.237 0.592,1.631c0.395,0.395 0.912,0.669 1.552,0.823c0.64,0.154 1.307,0.296 2,0.426c0.693,0.13 1.393,0.364 2.101,0.701c0.707,0.336 1.268,0.789 1.682,1.357c0.606,0.847 0.914,1.853 0.924,3.018c0,0.827 -0.168,1.694 -0.505,2.599c-0.337,0.904 -0.811,1.771 -1.423,2.599c-0.611,0.827 -1.444,1.513 -2.498,2.057c-1.054,0.544 -2.211,0.816 -3.472,0.816c-2.05,-0 -3.716,-0.554 -4.996,-1.66c-1.107,1.001 -1.752,1.535 -1.935,1.602c-0.077,0.039 -0.164,0.058 -0.26,0.058c-0.356,-0 -0.534,-0.159 -0.534,-0.476Z" style="fill:#fff;fill-rule:nonzero;"/>
    <path d="M731.076,125.945c0,-0.993 0.515,-1.508 1.545,-1.544l0.948,-0c1.878,-0 3.178,-0.072 3.9,-0.217l7.992,-32.073c-0.994,-0.109 -1.996,-0.163 -3.007,-0.163l-1.111,0c-0.993,0 -1.49,-0.37 -1.49,-1.11c0,-1.03 0.569,-1.553 1.707,-1.572c0.036,0 0.533,0.055 0.569,0.055l27.549,-0c1.03,-0 1.553,0.406 1.572,1.219c-0,0.108 -0.077,0.767 -0.231,1.977c-0.153,1.21 -0.329,2.691 -0.528,4.443c-0.199,1.752 -0.352,3.106 -0.46,4.063c-0.073,0.632 -0.213,1.079 -0.42,1.341c-0.208,0.262 -0.628,0.393 -1.26,0.393c-0.56,-0 -0.939,-0.104 -1.138,-0.312c-0.198,-0.207 -0.298,-0.546 -0.298,-1.016c0,-0.216 0.036,-0.745 0.109,-1.584c0.072,-0.84 0.108,-1.567 0.108,-2.181c-0,-2.366 -0.619,-3.91 -1.856,-4.632c-1.237,-0.723 -3.282,-1.084 -6.135,-1.084l-3.386,0c-1.192,0 -2.077,0.036 -2.655,0.109l-3.657,14.817l1.706,0c2.33,0 3.946,-0.451 4.849,-1.354c0.524,-0.524 0.921,-1.115 1.192,-1.774c0.271,-0.66 0.434,-1.219 0.488,-1.68c0.054,-0.46 0.221,-0.858 0.501,-1.192c0.28,-0.334 0.7,-0.501 1.26,-0.501c0.993,-0 1.49,0.388 1.49,1.165c-0,0.253 -0.903,3.991 -2.709,11.215c-0.036,0.18 -0.104,0.456 -0.203,0.826c-0.1,0.37 -0.168,0.627 -0.204,0.772c-0.036,0.144 -0.09,0.329 -0.162,0.555c-0.072,0.226 -0.154,0.384 -0.244,0.474c-0.09,0.091 -0.194,0.19 -0.312,0.298c-0.117,0.109 -0.257,0.181 -0.419,0.217c-0.163,0.036 -0.353,0.054 -0.569,0.054c-0.994,0 -1.499,-0.352 -1.517,-1.056c-0,-0.217 0.077,-0.687 0.23,-1.409c0.154,-0.722 0.23,-1.318 0.23,-1.788c0,-0.957 -0.334,-1.566 -1.002,-1.828c-0.668,-0.262 -1.743,-0.393 -3.224,-0.393l-2.058,-0l-3.712,14.818c0.921,0.072 2.294,0.108 4.118,0.108l1.381,-0c1.102,-0 1.653,0.37 1.653,1.111c-0,1.029 -0.515,1.544 -1.544,1.544c-0.072,-0 -1.219,-0.027 -3.44,-0.082c-2.222,-0.054 -4.019,-0.081 -5.391,-0.081c-1.969,0 -3.653,0.009 -5.052,0.027c-1.4,0.018 -2.42,0.045 -3.061,0.081c-0.641,0.037 -1.025,0.055 -1.152,0.055c-0.993,-0 -1.49,-0.371 -1.49,-1.111Z" style="fill:#fff;fill-rule:nonzero;"/>
    <path d="M704.86,163.424l19.549,-13.004l-1.326,23.441c-1.946,-7.165 -11.058,-12.383 -18.223,-10.437Z" style="fill:#fff;"/>
    <path d="M617.7,336.727c0,-0 73.226,-127.847 98.359,-171.729" style="fill:none;stroke:#fff;stroke-width:3.5px;"/>
    <path d="M854.42,371.361l21,10.5l-21,10.5c5.25,-5.25 5.25,-15.75 -0,-21Z" style="fill:#fff;"/>
    <path d="M633.738,381.861l224.882,0" style="fill:none;stroke:#fff;stroke-width:3.5px;"/>
    <path d="M888.226,327.019l1.326,23.442l-19.549,-13.005c7.165,1.947 16.277,-3.272 18.223,-10.437Z" style="fill:#fff;"/>
    <path d="M782.235,166.613c-0.48,-0.838 -0.189,-1.908 0.649,-2.388c0.838,-0.48 1.908,-0.189 2.388,0.649l4.873,8.507c0.48,0.838 0.189,1.908 -0.649,2.388c-0.838,0.48 -1.908,0.189 -2.388,-0.649l-4.873,-8.507Zm14.617,25.521c-0.48,-0.838 -0.189,-1.908 0.649,-2.388c0.838,-0.48 1.909,-0.19 2.389,0.649l9.744,17.013c0.48,0.839 0.19,1.909 -0.648,2.389c-0.838,0.48 -1.909,0.189 -2.389,-0.649l-9.745,-17.014Zm19.49,34.028c-0.48,-0.838 -0.189,-1.908 0.649,-2.388c0.838,-0.48 1.908,-0.19 2.388,0.648l9.745,17.014c0.48,0.838 0.189,1.909 -0.649,2.389c-0.838,0.48 -1.908,0.189 -2.388,-0.649l-9.745,-17.014Zm19.49,34.028c-0.48,-0.838 -0.189,-1.909 0.649,-2.389c0.838,-0.48 1.908,-0.189 2.388,0.649l9.745,17.014c0.48,0.838 0.189,1.908 -0.649,2.388c-0.838,0.48 -1.908,0.19 -2.388,-0.648l-9.745,-17.014Zm19.489,34.027c-0.48,-0.838 -0.189,-1.908 0.649,-2.388c0.838,-0.48 1.909,-0.189 2.389,0.649l9.744,17.014c0.48,0.838 0.19,1.908 -0.648,2.388c-0.839,0.48 -1.909,0.189 -2.389,-0.649l-9.745,-17.014Zm19.49,34.028c-0.48,-0.838 -0.189,-1.908 0.649,-2.388c0.838,-0.48 1.908,-0.189 2.388,0.649l4.873,8.507c0.48,0.838 0.189,1.908 -0.649,2.388c-0.838,0.48 -1.908,0.189 -2.388,-0.649l-4.873,-8.507Z" style="fill:#fff;"/>
</svg>
